<svg width="600" height="300" viewBox="0 0 347 141" fill="none" xmlns="http://www.w3.org/2000/svg">
<path d="M70.8 139.8C55.8667 139.8 43.0667 137.133 32.4 131.8C21.8667 126.333 13.8 118.667 8.2 108.8C2.73333 98.8 7.45058e-08 87.0667 7.45058e-08 73.6C7.45058e-08 60.6667 2.06667 49.6 6.2 40.4C10.4667 31.0667 16.0667 23.4667 23 17.6C29.9333 11.6 37.6 7.2 46 4.39999C54.4 1.46666 62.8667 -9.53674e-06 71.4 -9.53674e-06C82.6 -9.53674e-06 92.2 1.66666 100.2 5C108.2 8.2 114.333 12.4 118.6 17.6C122.867 22.8 125 28.2 125 33.8C125 39.8 123.867 44.4667 121.6 47.8C119.467 51.1333 116.667 53.4667 113.2 54.8C109.867 56.1333 106.4 56.8 102.8 56.8C98.2667 56.8 94.6667 56.3333 92 55.4C89.4667 54.3333 86.8667 53.3333 84.2 52.4C81.5333 51.4667 77.9333 51 73.4 51C64.7333 51 57.8 53.6 52.6 58.8C47.5333 64 45 71.4667 45 81.2C45 86.9333 46.2 91.6667 48.6 95.4C51 99.1333 54.1333 101.933 58 103.8C62 105.667 66.2667 106.6 70.8 106.6C75.3333 106.6 79.0667 106.067 82 105C85.0667 103.8 87.3333 102.533 88.8 101.2C90.2667 99.8667 91 98.8667 91 98.2C82.0667 98.2 74.8667 97.2 69.4 95.2C63.9333 93.0667 61.2 89 61.2 83C61.2 77.9333 63 73.7333 66.6 70.4C70.2 66.9333 76.8667 65.2 86.6 65.2C96.0667 65.2 103.467 66.3333 108.8 68.6C114.267 70.7333 118.067 74.1333 120.2 78.8C122.467 83.4667 123.6 89.5333 123.6 97C123.6 105 121.2 112.267 116.4 118.8C111.6 125.333 105.2 130.533 97.2 134.4C89.2 138.133 80.4 139.933 70.8 139.8ZM174.561 103.2C170.561 103.2 166.361 103.133 161.961 103C157.694 102.867 153.761 102.4 150.161 101.6C146.561 100.8 143.628 99.4 141.361 97.4C139.094 95.2667 137.961 92.2 137.961 88.2C137.961 84.2 139.094 81.2 141.361 79.2C143.628 77.0667 146.561 75.6 150.161 74.8C153.761 73.8667 157.694 73.3333 161.961 73.2C166.361 73.0667 170.561 73 174.561 73C178.694 73 182.894 73.0667 187.161 73.2C191.428 73.3333 195.361 73.8667 198.961 74.8C202.694 75.6 205.694 77.0667 207.961 79.2C210.228 81.2 211.361 84.2 211.361 88.2C211.361 92.2 210.228 95.2667 207.961 97.4C205.694 99.4 202.694 100.8 198.961 101.6C195.361 102.4 191.428 102.867 187.161 103C182.894 103.133 178.694 103.2 174.561 103.2ZM254.614 140.2C248.614 140.2 243.614 138.267 239.614 134.4C235.747 130.4 232.681 125.133 230.414 118.6C228.147 111.933 226.547 104.667 225.614 96.8C224.814 88.9333 224.414 81.1333 224.414 73.4C224.414 64.3333 225.614 55.4667 228.014 46.8C230.547 38.1333 234.347 30.3333 239.414 23.4C244.614 16.3333 251.147 10.7333 259.014 6.59999C266.881 2.46666 276.214 0.399997 287.014 0.399997C297.947 0.399997 307.814 2.66666 316.614 7.19999C325.547 11.7333 332.681 18.2 338.014 26.6C343.347 35 346.014 45 346.014 56.6C346.014 66.7333 344.481 75.5333 341.414 83C338.481 90.3333 334.547 96.4 329.614 101.2C331.614 104.267 333.214 107.533 334.414 111C335.614 114.467 336.214 117.8 336.214 121C336.214 124.733 335.214 128.067 333.214 131C331.214 133.8 328.614 136 325.414 137.6C322.347 139.2 319.081 140 315.614 140C312.681 140 309.947 139.533 307.414 138.6C304.881 137.667 302.081 136.067 299.014 133.8C296.214 131.667 293.747 128.867 291.614 125.4C289.481 121.8 287.747 118.267 286.414 114.8C281.747 114.267 277.347 113.133 273.214 111.4C273.881 114.6 274.214 117.867 274.214 121.2C274.347 124.533 273.814 127.667 272.614 130.6C271.547 133.4 269.547 135.733 266.614 137.6C263.814 139.333 259.814 140.2 254.614 140.2ZM289.014 83C293.814 83 297.947 81.3333 301.414 78C305.014 74.5333 306.814 70.5333 306.814 66C306.814 61.3333 305.014 57.3333 301.414 54C297.947 50.5333 293.814 48.8 289.014 48.8C284.214 48.8 280.014 50.5333 276.414 54C272.947 57.3333 271.214 61.3333 271.214 66C271.214 70.5333 272.947 74.5333 276.414 78C280.014 81.3333 284.214 83 289.014 83Z" fill="white"/>
</svg>
