<svg width="802" height="118" viewBox="0 0 802 118" fill="none" xmlns="http://www.w3.org/2000/svg">
<path d="M18.25 37C16.2167 37 14.2833 36.4333 12.45 35.3C10.65 34.1667 9 32.6667 7.5 30.8C6 28.9 4.7 26.8 3.6 24.5C2.53333 22.2 1.7 19.8667 1.1 17.5C0.533333 15.1333 0.25 12.9167 0.25 10.85C0.25 9.21667 0.483333 7.75 0.95 6.45C1.45 5.11667 2.2 4.05 3.2 3.25C4.2 2.45 5.46667 2.05 7 2.05C8.56667 2.05 9.86667 2.55 10.9 3.55C11.9667 4.51666 12.85 5.81666 13.55 7.45C14.25 9.05 14.85 10.8333 15.35 12.8C15.85 14.7333 16.3167 16.6833 16.75 18.65C17.2167 20.5833 17.7167 22.3667 18.25 24C18.9167 22.3667 19.4833 20.5833 19.95 18.65C20.45 16.6833 20.95 14.7333 21.45 12.8C21.95 10.8333 22.5333 9.05 23.2 7.45C23.8667 5.81666 24.6833 4.51666 25.65 3.55C26.65 2.55 27.8833 2.05 29.35 2.05C31.6833 2.05 33.3833 2.88333 34.45 4.55C35.55 6.21666 36.1 8.31667 36.1 10.85C36.1 12.9167 35.8 15.1333 35.2 17.5C34.6333 19.8667 33.8167 22.2 32.75 24.5C31.6833 26.8 30.4 28.9 28.9 30.8C27.4333 32.6667 25.8 34.1667 24 35.3C22.2 36.4333 20.2833 37 18.25 37ZM44.4301 12.75C42.7967 12.75 41.4134 12.1667 40.2801 11C39.1467 9.8 38.5801 8.35 38.5801 6.65C38.5801 5.51666 38.8301 4.5 39.3301 3.6C39.8634 2.7 40.5634 1.98333 41.4301 1.45C42.3301 0.883331 43.3301 0.599998 44.4301 0.599998C45.4967 0.599998 46.4634 0.883331 47.3301 1.45C48.2301 1.98333 48.9467 2.7 49.4801 3.6C50.0134 4.5 50.2801 5.51666 50.2801 6.65C50.2801 7.78333 50.0134 8.81667 49.4801 9.75C48.9467 10.65 48.2301 11.3833 47.3301 11.95C46.4634 12.4833 45.4967 12.75 44.4301 12.75ZM44.4301 37C43.0967 37 42.0967 36.6167 41.4301 35.85C40.7967 35.0833 40.3634 33.9167 40.1301 32.35C39.9301 30.75 39.8134 28.7 39.7801 26.2C39.7801 23.7 39.8801 21.65 40.0801 20.05C40.3134 18.45 40.7634 17.2833 41.4301 16.55C42.0967 15.7833 43.0967 15.4 44.4301 15.4C45.7634 15.4 46.7467 15.7833 47.3801 16.55C48.0467 17.2833 48.4967 18.45 48.7301 20.05C48.9634 21.65 49.0801 23.7 49.0801 26.2C49.1134 28.7 49.0134 30.75 48.7801 32.35C48.5467 33.9167 48.0967 35.0833 47.4301 35.85C46.7634 36.6167 45.7634 37 44.4301 37ZM63.7125 37C61.2458 37 59.1125 36.4167 57.3125 35.25C55.5458 34.0833 54.1792 32.5667 53.2125 30.7C52.2792 28.8333 51.8125 26.8833 51.8125 24.85C51.8125 22.25 52.3292 20.1167 53.3625 18.45C54.4292 16.7833 55.7792 15.55 57.4125 14.75C59.0458 13.9167 60.7458 13.5 62.5125 13.5C63.3458 13.5 64.1958 13.6 65.0625 13.8C65.9292 13.9667 66.7458 14.2667 67.5125 14.7C67.3792 13.2667 67.0792 11.8667 66.6125 10.5C66.1792 9.1 65.9625 7.68333 65.9625 6.25C65.9625 4.78333 66.4125 3.7 67.3125 3C68.2125 2.3 69.1792 1.95 70.2125 1.95C71.4125 1.95 72.4458 2.33333 73.3125 3.1C74.1792 3.86667 74.9125 4.88333 75.5125 6.15C76.1458 7.41666 76.6458 8.85 77.0125 10.45C77.3792 12.0167 77.6458 13.6333 77.8125 15.3C77.9792 16.9667 78.0625 18.5667 78.0625 20.1C78.0625 20.6 78.0292 21.3667 77.9625 22.4C77.9292 23.4333 77.7792 24.5833 77.5125 25.85C77.2458 27.1167 76.8125 28.4 76.2125 29.7C75.6458 31 74.8292 32.2 73.7625 33.3C72.7292 34.4 71.3958 35.3 69.7625 36C68.1292 36.6667 66.1125 37 63.7125 37ZM64.0125 29.1C64.9125 29.1 65.6958 28.7667 66.3625 28.1C67.0292 27.4 67.3625 26.5833 67.3625 25.65C67.3625 24.7167 67.0292 23.9 66.3625 23.2C65.6958 22.5 64.9125 22.15 64.0125 22.15C63.1125 22.15 62.3125 22.5 61.6125 23.2C60.9458 23.9 60.6125 24.7167 60.6125 25.65C60.6125 26.5833 60.9458 27.4 61.6125 28.1C62.3125 28.7667 63.1125 29.1 64.0125 29.1ZM92.1457 37C89.6457 37 87.4457 36.5167 85.5457 35.55C83.679 34.55 82.2124 33.2 81.1457 31.5C80.1124 29.7667 79.5957 27.7833 79.5957 25.55C79.5957 23.3833 80.1124 21.3833 81.1457 19.55C82.2124 17.7167 83.6624 16.25 85.4957 15.15C87.3624 14.05 89.4957 13.5 91.8957 13.5C94.129 13.5 96.0457 13.95 97.6457 14.85C99.2457 15.75 100.462 16.9 101.296 18.3C102.162 19.6667 102.596 21.1167 102.596 22.65C102.596 24.1833 102.246 25.45 101.546 26.45C100.846 27.4167 99.929 28.1667 98.7957 28.7C97.6957 29.2 96.5124 29.5333 95.2457 29.7C93.979 29.8667 92.7624 29.9 91.5957 29.8C90.429 29.6667 89.4457 29.4667 88.6457 29.2C89.2457 30.1667 89.9957 30.8333 90.8957 31.2C91.829 31.5333 92.7957 31.6833 93.7957 31.65C94.829 31.5833 95.7624 31.4667 96.5957 31.3C97.629 31.0667 98.479 31.1167 99.1457 31.45C99.8124 31.7833 100.162 32.3167 100.196 33.05C100.229 33.65 100.012 34.25 99.5457 34.85C99.1124 35.45 98.3124 35.9667 97.1457 36.4C95.979 36.8 94.3124 37 92.1457 37ZM88.7957 23.1C89.129 23.6333 89.6124 24.0167 90.2457 24.25C90.879 24.45 91.5124 24.5167 92.1457 24.45C92.8124 24.3833 93.3624 24.2 93.7957 23.9C94.2624 23.6 94.4957 23.1833 94.4957 22.65C94.4957 22.0833 94.2624 21.5833 93.7957 21.15C93.3624 20.6833 92.6624 20.45 91.6957 20.45C90.7624 20.45 90.0457 20.75 89.5457 21.35C89.0457 21.9167 88.7957 22.5 88.7957 23.1ZM116.607 37.05C114.141 37.0833 111.974 36.5833 110.107 35.55C108.274 34.4833 106.824 33.05 105.757 31.25C104.724 29.4167 104.174 27.4 104.107 25.2C104.074 22.9333 104.591 20.9333 105.657 19.2C106.724 17.4333 108.207 16.0333 110.107 15C112.007 13.9667 114.174 13.45 116.607 13.45C119.007 13.4167 121.124 13.9167 122.957 14.95C124.824 15.9833 126.307 17.3833 127.407 19.15C128.507 20.9167 129.091 22.9333 129.157 25.2C129.191 27.3667 128.674 29.35 127.607 31.15C126.541 32.9167 125.057 34.3333 123.157 35.4C121.257 36.4333 119.074 36.9833 116.607 37.05ZM116.757 29.75C117.657 29.75 118.441 29.4 119.107 28.7C119.774 28 120.107 27.1833 120.107 26.25C120.107 25.3167 119.774 24.5167 119.107 23.85C118.441 23.15 117.657 22.8 116.757 22.8C115.857 22.8 115.074 23.15 114.407 23.85C113.741 24.5167 113.407 25.3167 113.407 26.25C113.407 27.1833 113.741 28 114.407 28.7C115.074 29.4 115.857 29.75 116.757 29.75ZM158.887 36.95C156.753 36.9167 154.753 36.4 152.887 35.4C151.02 34.3667 149.503 32.95 148.337 31.15C147.203 29.35 146.637 27.3167 146.637 25.05C146.637 22.6167 147.203 20.55 148.337 18.85C149.503 17.1167 151.003 15.8 152.837 14.9C154.703 13.9667 156.67 13.5 158.737 13.5C160.87 13.5 162.737 13.9167 164.337 14.75C165.937 15.55 167.17 16.6 168.037 17.9C168.937 19.1667 169.387 20.4833 169.387 21.85C169.387 22.9833 169.037 23.8833 168.337 24.55C167.67 25.1833 166.603 25.5 165.137 25.5C164.337 25.5 163.72 25.35 163.287 25.05C162.887 24.7167 162.537 24.35 162.237 23.95C161.97 23.55 161.637 23.2 161.237 22.9C160.87 22.5667 160.32 22.4 159.587 22.4C158.72 22.4 157.953 22.7 157.287 23.3C156.653 23.9 156.337 24.7 156.337 25.7C156.337 26.7333 156.653 27.55 157.287 28.15C157.92 28.7167 158.687 29 159.587 29C160.287 29 160.82 28.9 161.187 28.7C161.553 28.4667 161.87 28.2 162.137 27.9C162.437 27.6 162.803 27.35 163.237 27.15C163.67 26.9167 164.303 26.8 165.137 26.8C166.603 26.8 167.67 27.2 168.337 28C169.037 28.7667 169.387 29.5833 169.387 30.45C169.387 31.55 168.953 32.6 168.087 33.6C167.22 34.6 166.003 35.4167 164.437 36.05C162.87 36.65 161.02 36.95 158.887 36.95ZM180.393 37C178.759 37 177.259 36.75 175.893 36.25C174.559 35.75 173.493 35 172.693 34C171.893 32.9667 171.493 31.6667 171.493 30.1C171.493 28.7667 171.893 27.6333 172.693 26.7C173.493 25.7667 174.559 25.05 175.893 24.55C177.259 24.05 178.759 23.8 180.393 23.8C181.359 23.8 182.243 23.8833 183.043 24.05C183.843 24.1833 184.393 24.35 184.693 24.55C184.693 23.7833 184.376 23.1167 183.743 22.55C183.109 21.95 182.009 21.65 180.443 21.65C179.709 21.65 179.126 21.7167 178.693 21.85C178.293 21.95 177.926 22.0833 177.593 22.25C177.259 22.4167 176.876 22.5667 176.443 22.7C176.043 22.8 175.493 22.85 174.793 22.85C173.759 22.85 172.926 22.5833 172.293 22.05C171.693 21.4833 171.393 20.6333 171.393 19.5C171.393 18.4667 171.676 17.5833 172.243 16.85C172.843 16.0833 173.609 15.45 174.543 14.95C175.476 14.45 176.476 14.0833 177.543 13.85C178.643 13.6167 179.693 13.5 180.693 13.5C183.659 13.5 186.076 14.05 187.943 15.15C189.809 16.2167 191.193 17.6167 192.093 19.35C192.993 21.0833 193.443 22.9667 193.443 25C193.443 26.1333 193.343 27.1833 193.143 28.15C192.976 29.1167 192.743 29.8667 192.443 30.4C192.909 30.8 193.259 31.2667 193.493 31.8C193.759 32.3333 193.893 32.8833 193.893 33.45C193.893 34.3833 193.576 35.2167 192.943 35.95C192.343 36.65 191.476 37 190.343 37C189.476 37 188.793 36.8667 188.293 36.6C187.793 36.3333 187.293 35.9833 186.793 35.55C185.993 36.0167 185.109 36.3833 184.143 36.65C183.176 36.8833 181.926 37 180.393 37ZM181.393 31.95C182.159 31.95 182.726 31.8 183.093 31.5C183.493 31.1667 183.693 30.8 183.693 30.4C183.693 30 183.493 29.65 183.093 29.35C182.726 29.0167 182.159 28.85 181.393 28.85C180.659 28.85 180.093 29.0167 179.693 29.35C179.293 29.65 179.093 30 179.093 30.4C179.093 30.8 179.293 31.1667 179.693 31.5C180.093 31.8 180.659 31.95 181.393 31.95ZM202.243 36.9C200.543 36.9 199.276 36.2667 198.443 35C197.609 33.7 197.059 31.7667 196.793 29.2C196.526 26.6 196.393 23.35 196.393 19.45C196.393 16.8833 196.426 14.5333 196.493 12.4C196.593 10.2667 196.826 8.43333 197.193 6.9C197.559 5.33333 198.143 4.13333 198.943 3.3C199.743 2.43333 200.859 2 202.293 2C203.726 2 204.843 2.43333 205.643 3.3C206.443 4.13333 207.026 5.33333 207.393 6.9C207.759 8.43333 207.976 10.2667 208.043 12.4C208.143 14.5333 208.193 16.8833 208.193 19.45C208.193 25.3167 207.776 29.7 206.943 32.6C206.143 35.4667 204.576 36.9 202.243 36.9ZM216.549 36.9C214.849 36.9 213.583 36.2667 212.749 35C211.916 33.7 211.366 31.7667 211.099 29.2C210.833 26.6 210.699 23.35 210.699 19.45C210.699 16.8833 210.733 14.5333 210.799 12.4C210.899 10.2667 211.133 8.43333 211.499 6.9C211.866 5.33333 212.449 4.13333 213.249 3.3C214.049 2.43333 215.166 2 216.599 2C218.033 2 219.149 2.43333 219.949 3.3C220.749 4.13333 221.333 5.33333 221.699 6.9C222.066 8.43333 222.283 10.2667 222.349 12.4C222.449 14.5333 222.499 16.8833 222.499 19.45C222.499 25.3167 222.083 29.7 221.249 32.6C220.449 35.4667 218.883 36.9 216.549 36.9ZM234.906 27.8C233.906 27.8 232.856 27.7833 231.756 27.75C230.689 27.7167 229.706 27.6 228.806 27.4C227.906 27.2 227.173 26.85 226.606 26.35C226.039 25.8167 225.756 25.05 225.756 24.05C225.756 23.05 226.039 22.3 226.606 21.8C227.173 21.2667 227.906 20.9 228.806 20.7C229.706 20.4667 230.689 20.3333 231.756 20.3C232.856 20.2667 233.906 20.25 234.906 20.25C235.939 20.25 236.989 20.2667 238.056 20.3C239.123 20.3333 240.106 20.4667 241.006 20.7C241.939 20.9 242.689 21.2667 243.256 21.8C243.823 22.3 244.106 23.05 244.106 24.05C244.106 25.05 243.823 25.8167 243.256 26.35C242.689 26.85 241.939 27.2 241.006 27.4C240.106 27.6 239.123 27.7167 238.056 27.75C236.989 27.7833 235.939 27.8 234.906 27.8ZM256.969 37C254.036 37 251.702 36.5167 249.969 35.55C248.236 34.5833 247.369 33.3333 247.369 31.8C247.369 30.7333 247.719 29.95 248.419 29.45C249.152 28.9167 250.019 28.65 251.019 28.65C251.819 28.65 252.402 28.7833 252.769 29.05C253.169 29.3167 253.519 29.5833 253.819 29.85C254.119 30.1167 254.486 30.25 254.919 30.25C255.619 30.25 255.969 30 255.969 29.5C255.969 28.8333 255.569 28.35 254.769 28.05C254.002 27.75 253.036 27.3333 251.869 26.8C250.269 26.0333 249.119 25.15 248.419 24.15C247.719 23.1167 247.369 22.0667 247.369 21C247.369 19.7333 247.819 18.5333 248.719 17.4C249.619 16.2667 250.886 15.3333 252.519 14.6C254.186 13.8667 256.169 13.5 258.469 13.5C260.402 13.5 262.136 13.7667 263.669 14.3C265.202 14.8333 266.419 15.5667 267.319 16.5C268.219 17.4 268.669 18.4 268.669 19.5C268.669 20.5333 268.336 21.3167 267.669 21.85C267.002 22.3833 266.136 22.65 265.069 22.65C264.469 22.65 263.986 22.5667 263.619 22.4C263.286 22.2 262.969 22.0167 262.669 21.85C262.402 21.6833 262.019 21.6 261.519 21.6C261.252 21.6 261.019 21.7 260.819 21.9C260.619 22.0667 260.519 22.2833 260.519 22.55C260.519 22.75 260.602 22.95 260.769 23.15C260.936 23.35 261.219 23.5167 261.619 23.65C262.652 23.9833 263.652 24.4167 264.619 24.95C265.619 25.45 266.436 26.1167 267.069 26.95C267.736 27.75 268.069 28.7833 268.069 30.05C268.069 32.2167 267.052 33.9167 265.019 35.15C262.986 36.3833 260.302 37 256.969 37ZM282.272 37C279.805 37 277.655 36.4 275.822 35.2C274.022 33.9667 272.622 32.2667 271.622 30.1C270.655 27.9 270.172 25.3667 270.172 22.5C270.172 19.7 270.605 17.5 271.472 15.9C272.372 14.3 273.639 13.5 275.272 13.5C276.439 13.5 277.322 13.7167 277.922 14.15C278.555 14.5833 278.972 15.1333 279.172 15.8C279.405 16.4333 279.522 17.1167 279.522 17.85C279.522 18.7833 279.455 19.7333 279.322 20.7C279.222 21.6667 279.172 22.7 279.172 23.8C279.172 25.3667 279.489 26.5167 280.122 27.25C280.789 27.95 281.505 28.3 282.272 28.3C283.105 28.3 283.822 27.95 284.422 27.25C285.055 26.5167 285.372 25.3667 285.372 23.8C285.372 22.7 285.322 21.7167 285.222 20.85C285.122 19.9833 285.072 19 285.072 17.9C285.072 16.7333 285.355 15.7167 285.922 14.85C286.489 13.95 287.622 13.5 289.322 13.5C290.955 13.5 292.205 14.3 293.072 15.9C293.939 17.5 294.372 19.7 294.372 22.5C294.372 25.3667 293.922 27.9 293.022 30.1C292.122 32.2667 290.772 33.9667 288.972 35.2C287.205 36.4 284.972 37 282.272 37ZM301.151 44.15C299.851 44.15 298.834 43.6333 298.101 42.6C297.401 41.6 296.901 40.2833 296.601 38.65C296.334 37.0167 296.167 35.2667 296.101 33.4C296.067 31.5333 296.051 29.7667 296.051 28.1C296.051 26.6333 296.084 25.0667 296.151 23.4C296.251 21.7 296.451 20.1 296.751 18.6C297.084 17.0667 297.634 15.8167 298.401 14.85C299.167 13.8833 300.217 13.4 301.551 13.4C302.584 13.4 303.384 13.6 303.951 14C304.517 14.4 304.951 14.8667 305.251 15.4C306.017 14.8333 306.967 14.3833 308.101 14.05C309.234 13.6833 310.451 13.5 311.751 13.5C313.917 13.5 315.884 14.0333 317.651 15.1C319.451 16.1667 320.884 17.6 321.951 19.4C323.017 21.1667 323.551 23.1333 323.551 25.3C323.551 27.4667 323.017 29.45 321.951 31.25C320.884 33.05 319.451 34.4833 317.651 35.55C315.884 36.6167 313.917 37.15 311.751 37.15C310.417 37.15 309.184 36.9833 308.051 36.65C306.917 36.2833 305.967 35.8 305.201 35.2C305.201 36.8667 305.134 38.3833 305.001 39.75C304.901 41.1167 304.567 42.1833 304.001 42.95C303.434 43.75 302.484 44.15 301.151 44.15ZM311.501 28.85C312.367 28.85 313.117 28.5333 313.751 27.9C314.417 27.2333 314.751 26.4667 314.751 25.6C314.751 24.7333 314.417 23.9833 313.751 23.35C313.117 22.6833 312.367 22.35 311.501 22.35C310.634 22.35 309.867 22.6833 309.201 23.35C308.567 23.9833 308.251 24.7333 308.251 25.6C308.251 26.4667 308.567 27.2333 309.201 27.9C309.867 28.5333 310.634 28.85 311.501 28.85ZM330.155 44.15C328.855 44.15 327.838 43.6333 327.105 42.6C326.405 41.6 325.905 40.2833 325.605 38.65C325.338 37.0167 325.171 35.2667 325.105 33.4C325.071 31.5333 325.055 29.7667 325.055 28.1C325.055 26.6333 325.088 25.0667 325.155 23.4C325.255 21.7 325.455 20.1 325.755 18.6C326.088 17.0667 326.638 15.8167 327.405 14.85C328.171 13.8833 329.221 13.4 330.555 13.4C331.588 13.4 332.388 13.6 332.955 14C333.521 14.4 333.955 14.8667 334.255 15.4C335.021 14.8333 335.971 14.3833 337.105 14.05C338.238 13.6833 339.455 13.5 340.755 13.5C342.921 13.5 344.888 14.0333 346.655 15.1C348.455 16.1667 349.888 17.6 350.955 19.4C352.021 21.1667 352.555 23.1333 352.555 25.3C352.555 27.4667 352.021 29.45 350.955 31.25C349.888 33.05 348.455 34.4833 346.655 35.55C344.888 36.6167 342.921 37.15 340.755 37.15C339.421 37.15 338.188 36.9833 337.055 36.65C335.921 36.2833 334.971 35.8 334.205 35.2C334.205 36.8667 334.138 38.3833 334.005 39.75C333.905 41.1167 333.571 42.1833 333.005 42.95C332.438 43.75 331.488 44.15 330.155 44.15ZM340.505 28.85C341.371 28.85 342.121 28.5333 342.755 27.9C343.421 27.2333 343.755 26.4667 343.755 25.6C343.755 24.7333 343.421 23.9833 342.755 23.35C342.121 22.6833 341.371 22.35 340.505 22.35C339.638 22.35 338.871 22.6833 338.205 23.35C337.571 23.9833 337.255 24.7333 337.255 25.6C337.255 26.4667 337.571 27.2333 338.205 27.9C338.871 28.5333 339.638 28.85 340.505 28.85ZM366.559 37.05C364.092 37.0833 361.925 36.5833 360.059 35.55C358.225 34.4833 356.775 33.05 355.709 31.25C354.675 29.4167 354.125 27.4 354.059 25.2C354.025 22.9333 354.542 20.9333 355.609 19.2C356.675 17.4333 358.159 16.0333 360.059 15C361.959 13.9667 364.125 13.45 366.559 13.45C368.959 13.4167 371.075 13.9167 372.909 14.95C374.775 15.9833 376.259 17.3833 377.359 19.15C378.459 20.9167 379.042 22.9333 379.109 25.2C379.142 27.3667 378.625 29.35 377.559 31.15C376.492 32.9167 375.009 34.3333 373.109 35.4C371.209 36.4333 369.025 36.9833 366.559 37.05ZM366.709 29.75C367.609 29.75 368.392 29.4 369.059 28.7C369.725 28 370.059 27.1833 370.059 26.25C370.059 25.3167 369.725 24.5167 369.059 23.85C368.392 23.15 367.609 22.8 366.709 22.8C365.809 22.8 365.025 23.15 364.359 23.85C363.692 24.5167 363.359 25.3167 363.359 26.25C363.359 27.1833 363.692 28 364.359 28.7C365.025 29.4 365.809 29.75 366.709 29.75ZM386.459 37C385.326 37 384.393 36.6333 383.659 35.9C382.959 35.1333 382.426 34.1167 382.059 32.85C381.693 31.5833 381.443 30.1333 381.309 28.5C381.176 26.8667 381.109 25.1833 381.109 23.45C381.109 22.2833 381.126 21.1 381.159 19.9C381.226 18.6667 381.393 17.5333 381.659 16.5C381.959 15.4667 382.443 14.6333 383.109 14C383.809 13.3333 384.793 13 386.059 13C386.959 13 387.776 13.2167 388.509 13.65C389.243 14.05 389.709 14.6667 389.909 15.5C390.676 14.8 391.643 14.3 392.809 14C394.009 13.6667 395.243 13.5 396.509 13.5C397.576 13.5 398.659 13.7667 399.759 14.3C400.859 14.8 401.793 15.5 402.559 16.4C403.326 17.3 403.709 18.3167 403.709 19.45C403.709 20.4167 403.343 21.3333 402.609 22.2C401.909 23.0667 400.909 23.5 399.609 23.5C399.043 23.5 398.576 23.4333 398.209 23.3C397.843 23.1333 397.493 22.9833 397.159 22.85C396.826 22.7167 396.426 22.65 395.959 22.65C394.726 22.65 393.593 23.15 392.559 24.15C391.559 25.1167 391.059 26.4333 391.059 28.1C391.059 28.9667 391.026 29.9167 390.959 30.95C390.926 31.95 390.776 32.9167 390.509 33.85C390.276 34.7833 389.843 35.55 389.209 36.15C388.576 36.7167 387.659 37 386.459 37ZM421.807 37C420.64 37 419.457 36.7667 418.257 36.3C417.057 35.8333 415.974 35.15 415.007 34.25C414.074 33.35 413.39 32.2667 412.957 31C412.657 30.1667 412.44 29.1333 412.307 27.9C412.174 26.6667 412.074 25.35 412.007 23.95C411.974 22.55 411.957 21.1833 411.957 19.85C410.657 19.8167 409.407 19.7 408.207 19.5C407.04 19.3 406.074 18.9333 405.307 18.4C404.574 17.8333 404.207 17.0167 404.207 15.95C404.207 14.65 404.557 13.6833 405.257 13.05C405.957 12.3833 406.89 11.95 408.057 11.75C409.257 11.5167 410.557 11.3833 411.957 11.35C411.99 10.3167 412.074 9.26667 412.207 8.2C412.374 7.1 412.64 6.08333 413.007 5.15C413.374 4.21667 413.89 3.46667 414.557 2.9C415.224 2.3 416.09 2 417.157 2C418.59 2 419.624 2.45 420.257 3.35C420.924 4.25 421.34 5.41666 421.507 6.85C421.674 8.28333 421.74 9.78333 421.707 11.35C423.44 11.3167 424.974 11.3833 426.307 11.55C427.64 11.7167 428.69 12.0833 429.457 12.65C430.224 13.2167 430.607 14.1167 430.607 15.35C430.607 16.6167 430.174 17.5667 429.307 18.2C428.44 18.8333 427.307 19.2667 425.907 19.5C424.507 19.7 423.024 19.8167 421.457 19.85C421.457 20.4833 421.44 21.15 421.407 21.85C421.407 22.5167 421.407 23.2 421.407 23.9C421.407 25.8 421.54 27.15 421.807 27.95C422.007 28.55 422.274 28.9333 422.607 29.1C422.974 29.2667 423.424 29.3667 423.957 29.4C424.49 29.4 425.14 29.5 425.907 29.7C426.674 29.8667 427.274 30.2833 427.707 30.95C428.14 31.5833 428.357 32.4 428.357 33.4C428.357 34.5333 427.757 35.4167 426.557 36.05C425.39 36.6833 423.807 37 421.807 37ZM442.683 37C440.183 37 437.983 36.5167 436.083 35.55C434.216 34.55 432.749 33.2 431.683 31.5C430.649 29.7667 430.133 27.7833 430.133 25.55C430.133 23.3833 430.649 21.3833 431.683 19.55C432.749 17.7167 434.199 16.25 436.033 15.15C437.899 14.05 440.033 13.5 442.433 13.5C444.666 13.5 446.583 13.95 448.183 14.85C449.783 15.75 450.999 16.9 451.833 18.3C452.699 19.6667 453.133 21.1167 453.133 22.65C453.133 24.1833 452.783 25.45 452.083 26.45C451.383 27.4167 450.466 28.1667 449.333 28.7C448.233 29.2 447.049 29.5333 445.783 29.7C444.516 29.8667 443.299 29.9 442.133 29.8C440.966 29.6667 439.983 29.4667 439.183 29.2C439.783 30.1667 440.533 30.8333 441.433 31.2C442.366 31.5333 443.333 31.6833 444.333 31.65C445.366 31.5833 446.299 31.4667 447.133 31.3C448.166 31.0667 449.016 31.1167 449.683 31.45C450.349 31.7833 450.699 32.3167 450.733 33.05C450.766 33.65 450.549 34.25 450.083 34.85C449.649 35.45 448.849 35.9667 447.683 36.4C446.516 36.8 444.849 37 442.683 37ZM439.333 23.1C439.666 23.6333 440.149 24.0167 440.783 24.25C441.416 24.45 442.049 24.5167 442.683 24.45C443.349 24.3833 443.899 24.2 444.333 23.9C444.799 23.6 445.033 23.1833 445.033 22.65C445.033 22.0833 444.799 21.5833 444.333 21.15C443.899 20.6833 443.199 20.45 442.233 20.45C441.299 20.45 440.583 20.75 440.083 21.35C439.583 21.9167 439.333 22.5 439.333 23.1ZM466.545 37C464.078 37 461.945 36.4167 460.145 35.25C458.378 34.0833 457.011 32.5667 456.045 30.7C455.111 28.8333 454.645 26.8833 454.645 24.85C454.645 22.25 455.161 20.1167 456.195 18.45C457.261 16.7833 458.611 15.55 460.245 14.75C461.878 13.9167 463.578 13.5 465.345 13.5C466.178 13.5 467.028 13.6 467.895 13.8C468.761 13.9667 469.578 14.2667 470.345 14.7C470.211 13.2667 469.911 11.8667 469.445 10.5C469.011 9.1 468.795 7.68333 468.795 6.25C468.795 4.78333 469.245 3.7 470.145 3C471.045 2.3 472.011 1.95 473.045 1.95C474.245 1.95 475.278 2.33333 476.145 3.1C477.011 3.86667 477.745 4.88333 478.345 6.15C478.978 7.41666 479.478 8.85 479.845 10.45C480.211 12.0167 480.478 13.6333 480.645 15.3C480.811 16.9667 480.895 18.5667 480.895 20.1C480.895 20.6 480.861 21.3667 480.795 22.4C480.761 23.4333 480.611 24.5833 480.345 25.85C480.078 27.1167 479.645 28.4 479.045 29.7C478.478 31 477.661 32.2 476.595 33.3C475.561 34.4 474.228 35.3 472.595 36C470.961 36.6667 468.945 37 466.545 37ZM466.845 29.1C467.745 29.1 468.528 28.7667 469.195 28.1C469.861 27.4 470.195 26.5833 470.195 25.65C470.195 24.7167 469.861 23.9 469.195 23.2C468.528 22.5 467.745 22.15 466.845 22.15C465.945 22.15 465.145 22.5 464.445 23.2C463.778 23.9 463.445 24.7167 463.445 25.65C463.445 26.5833 463.778 27.4 464.445 28.1C465.145 28.7667 465.945 29.1 466.845 29.1ZM520.795 44.15C519.461 44.15 518.511 43.75 517.945 42.95C517.378 42.1833 517.028 41.1167 516.895 39.75C516.795 38.3833 516.745 36.8667 516.745 35.2C515.978 35.8 515.028 36.2833 513.895 36.65C512.761 36.9833 511.528 37.15 510.195 37.15C508.028 37.15 506.045 36.6167 504.245 35.55C502.478 34.4833 501.061 33.05 499.995 31.25C498.928 29.45 498.395 27.4667 498.395 25.3C498.395 23.1333 498.928 21.1667 499.995 19.4C501.061 17.6 502.478 16.1667 504.245 15.1C506.045 14.0333 508.028 13.5 510.195 13.5C511.495 13.5 512.711 13.6833 513.845 14.05C515.011 14.3833 515.961 14.8333 516.695 15.4C516.995 14.8667 517.428 14.4 517.995 14C518.561 13.6 519.361 13.4 520.395 13.4C521.761 13.4 522.811 13.8833 523.545 14.85C524.311 15.8167 524.845 17.0667 525.145 18.6C525.478 20.1 525.678 21.7 525.745 23.4C525.845 25.0667 525.895 26.6333 525.895 28.1C525.895 29.7667 525.861 31.5333 525.795 33.4C525.761 35.2667 525.595 37.0167 525.295 38.65C525.028 40.2833 524.528 41.6 523.795 42.6C523.095 43.6333 522.095 44.15 520.795 44.15ZM510.445 28.85C511.311 28.85 512.061 28.5333 512.695 27.9C513.361 27.2333 513.695 26.4667 513.695 25.6C513.695 24.7333 513.361 23.9833 512.695 23.35C512.061 22.6833 511.311 22.35 510.445 22.35C509.578 22.35 508.811 22.6833 508.145 23.35C507.511 23.9833 507.195 24.7333 507.195 25.6C507.195 26.4667 507.511 27.2333 508.145 27.9C508.811 28.5333 509.578 28.85 510.445 28.85ZM539.498 37C537.032 37 534.882 36.4 533.048 35.2C531.248 33.9667 529.848 32.2667 528.848 30.1C527.882 27.9 527.398 25.3667 527.398 22.5C527.398 19.7 527.832 17.5 528.698 15.9C529.598 14.3 530.865 13.5 532.498 13.5C533.665 13.5 534.548 13.7167 535.148 14.15C535.782 14.5833 536.198 15.1333 536.398 15.8C536.632 16.4333 536.748 17.1167 536.748 17.85C536.748 18.7833 536.682 19.7333 536.548 20.7C536.448 21.6667 536.398 22.7 536.398 23.8C536.398 25.3667 536.715 26.5167 537.348 27.25C538.015 27.95 538.732 28.3 539.498 28.3C540.332 28.3 541.048 27.95 541.648 27.25C542.282 26.5167 542.598 25.3667 542.598 23.8C542.598 22.7 542.548 21.7167 542.448 20.85C542.348 19.9833 542.298 19 542.298 17.9C542.298 16.7333 542.582 15.7167 543.148 14.85C543.715 13.95 544.848 13.5 546.548 13.5C548.182 13.5 549.432 14.3 550.298 15.9C551.165 17.5 551.598 19.7 551.598 22.5C551.598 25.3667 551.148 27.9 550.248 30.1C549.348 32.2667 547.998 33.9667 546.198 35.2C544.432 36.4 542.198 37 539.498 37ZM565.827 37C563.327 37 561.127 36.5167 559.227 35.55C557.361 34.55 555.894 33.2 554.827 31.5C553.794 29.7667 553.277 27.7833 553.277 25.55C553.277 23.3833 553.794 21.3833 554.827 19.55C555.894 17.7167 557.344 16.25 559.177 15.15C561.044 14.05 563.177 13.5 565.577 13.5C567.811 13.5 569.727 13.95 571.327 14.85C572.927 15.75 574.144 16.9 574.977 18.3C575.844 19.6667 576.277 21.1167 576.277 22.65C576.277 24.1833 575.927 25.45 575.227 26.45C574.527 27.4167 573.611 28.1667 572.477 28.7C571.377 29.2 570.194 29.5333 568.927 29.7C567.661 29.8667 566.444 29.9 565.277 29.8C564.111 29.6667 563.127 29.4667 562.327 29.2C562.927 30.1667 563.677 30.8333 564.577 31.2C565.511 31.5333 566.477 31.6833 567.477 31.65C568.511 31.5833 569.444 31.4667 570.277 31.3C571.311 31.0667 572.161 31.1167 572.827 31.45C573.494 31.7833 573.844 32.3167 573.877 33.05C573.911 33.65 573.694 34.25 573.227 34.85C572.794 35.45 571.994 35.9667 570.827 36.4C569.661 36.8 567.994 37 565.827 37ZM562.477 23.1C562.811 23.6333 563.294 24.0167 563.927 24.25C564.561 24.45 565.194 24.5167 565.827 24.45C566.494 24.3833 567.044 24.2 567.477 23.9C567.944 23.6 568.177 23.1833 568.177 22.65C568.177 22.0833 567.944 21.5833 567.477 21.15C567.044 20.6833 566.344 20.45 565.377 20.45C564.444 20.45 563.727 20.75 563.227 21.35C562.727 21.9167 562.477 22.5 562.477 23.1ZM587.389 37C584.456 37 582.122 36.5167 580.389 35.55C578.656 34.5833 577.789 33.3333 577.789 31.8C577.789 30.7333 578.139 29.95 578.839 29.45C579.572 28.9167 580.439 28.65 581.439 28.65C582.239 28.65 582.822 28.7833 583.189 29.05C583.589 29.3167 583.939 29.5833 584.239 29.85C584.539 30.1167 584.906 30.25 585.339 30.25C586.039 30.25 586.389 30 586.389 29.5C586.389 28.8333 585.989 28.35 585.189 28.05C584.422 27.75 583.456 27.3333 582.289 26.8C580.689 26.0333 579.539 25.15 578.839 24.15C578.139 23.1167 577.789 22.0667 577.789 21C577.789 19.7333 578.239 18.5333 579.139 17.4C580.039 16.2667 581.306 15.3333 582.939 14.6C584.606 13.8667 586.589 13.5 588.889 13.5C590.822 13.5 592.556 13.7667 594.089 14.3C595.622 14.8333 596.839 15.5667 597.739 16.5C598.639 17.4 599.089 18.4 599.089 19.5C599.089 20.5333 598.756 21.3167 598.089 21.85C597.422 22.3833 596.556 22.65 595.489 22.65C594.889 22.65 594.406 22.5667 594.039 22.4C593.706 22.2 593.389 22.0167 593.089 21.85C592.822 21.6833 592.439 21.6 591.939 21.6C591.672 21.6 591.439 21.7 591.239 21.9C591.039 22.0667 590.939 22.2833 590.939 22.55C590.939 22.75 591.022 22.95 591.189 23.15C591.356 23.35 591.639 23.5167 592.039 23.65C593.072 23.9833 594.072 24.4167 595.039 24.95C596.039 25.45 596.856 26.1167 597.489 26.95C598.156 27.75 598.489 28.7833 598.489 30.05C598.489 32.2167 597.472 33.9167 595.439 35.15C593.406 36.3833 590.722 37 587.389 37ZM617.168 37C616.002 37 614.818 36.7667 613.618 36.3C612.418 35.8333 611.335 35.15 610.368 34.25C609.435 33.35 608.752 32.2667 608.318 31C608.018 30.1667 607.802 29.1333 607.668 27.9C607.535 26.6667 607.435 25.35 607.368 23.95C607.335 22.55 607.318 21.1833 607.318 19.85C606.018 19.8167 604.768 19.7 603.568 19.5C602.402 19.3 601.435 18.9333 600.668 18.4C599.935 17.8333 599.568 17.0167 599.568 15.95C599.568 14.65 599.918 13.6833 600.618 13.05C601.318 12.3833 602.252 11.95 603.418 11.75C604.618 11.5167 605.918 11.3833 607.318 11.35C607.352 10.3167 607.435 9.26667 607.568 8.2C607.735 7.1 608.002 6.08333 608.368 5.15C608.735 4.21667 609.252 3.46667 609.918 2.9C610.585 2.3 611.452 2 612.518 2C613.952 2 614.985 2.45 615.618 3.35C616.285 4.25 616.702 5.41666 616.868 6.85C617.035 8.28333 617.102 9.78333 617.068 11.35C618.802 11.3167 620.335 11.3833 621.668 11.55C623.002 11.7167 624.052 12.0833 624.818 12.65C625.585 13.2167 625.968 14.1167 625.968 15.35C625.968 16.6167 625.535 17.5667 624.668 18.2C623.802 18.8333 622.668 19.2667 621.268 19.5C619.868 19.7 618.385 19.8167 616.818 19.85C616.818 20.4833 616.802 21.15 616.768 21.85C616.768 22.5167 616.768 23.2 616.768 23.9C616.768 25.8 616.902 27.15 617.168 27.95C617.368 28.55 617.635 28.9333 617.968 29.1C618.335 29.2667 618.785 29.3667 619.318 29.4C619.852 29.4 620.502 29.5 621.268 29.7C622.035 29.8667 622.635 30.2833 623.068 30.95C623.502 31.5833 623.718 32.4 623.718 33.4C623.718 34.5333 623.118 35.4167 621.918 36.05C620.752 36.6833 619.168 37 617.168 37ZM632.321 12.75C630.687 12.75 629.304 12.1667 628.171 11C627.037 9.8 626.471 8.35 626.471 6.65C626.471 5.51666 626.721 4.5 627.221 3.6C627.754 2.7 628.454 1.98333 629.321 1.45C630.221 0.883331 631.221 0.599998 632.321 0.599998C633.387 0.599998 634.354 0.883331 635.221 1.45C636.121 1.98333 636.837 2.7 637.371 3.6C637.904 4.5 638.171 5.51666 638.171 6.65C638.171 7.78333 637.904 8.81667 637.371 9.75C636.837 10.65 636.121 11.3833 635.221 11.95C634.354 12.4833 633.387 12.75 632.321 12.75ZM632.321 37C630.987 37 629.987 36.6167 629.321 35.85C628.687 35.0833 628.254 33.9167 628.021 32.35C627.821 30.75 627.704 28.7 627.671 26.2C627.671 23.7 627.771 21.65 627.971 20.05C628.204 18.45 628.654 17.2833 629.321 16.55C629.987 15.7833 630.987 15.4 632.321 15.4C633.654 15.4 634.637 15.7833 635.271 16.55C635.937 17.2833 636.387 18.45 636.621 20.05C636.854 21.65 636.971 23.7 636.971 26.2C637.004 28.7 636.904 30.75 636.671 32.35C636.437 33.9167 635.987 35.0833 635.321 35.85C634.654 36.6167 633.654 37 632.321 37ZM652.203 37.05C649.736 37.0833 647.57 36.5833 645.703 35.55C643.87 34.4833 642.42 33.05 641.353 31.25C640.32 29.4167 639.77 27.4 639.703 25.2C639.67 22.9333 640.186 20.9333 641.253 19.2C642.32 17.4333 643.803 16.0333 645.703 15C647.603 13.9667 649.77 13.45 652.203 13.45C654.603 13.4167 656.72 13.9167 658.553 14.95C660.42 15.9833 661.903 17.3833 663.003 19.15C664.103 20.9167 664.686 22.9333 664.753 25.2C664.786 27.3667 664.27 29.35 663.203 31.15C662.136 32.9167 660.653 34.3333 658.753 35.4C656.853 36.4333 654.67 36.9833 652.203 37.05ZM652.353 29.75C653.253 29.75 654.036 29.4 654.703 28.7C655.37 28 655.703 27.1833 655.703 26.25C655.703 25.3167 655.37 24.5167 654.703 23.85C654.036 23.15 653.253 22.8 652.353 22.8C651.453 22.8 650.67 23.15 650.003 23.85C649.336 24.5167 649.003 25.3167 649.003 26.25C649.003 27.1833 649.336 28 650.003 28.7C650.67 29.4 651.453 29.75 652.353 29.75ZM686.016 37C684.682 37 683.732 36.6333 683.166 35.9C682.632 35.1333 682.316 34.1833 682.216 33.05C682.116 31.8833 682.066 30.7167 682.066 29.55C682.066 27.7833 681.816 26.3667 681.316 25.3C680.816 24.2 679.932 23.65 678.666 23.65C677.532 23.65 676.699 24.2 676.166 25.3C675.632 26.3667 675.366 27.7833 675.366 29.55C675.366 30.7167 675.316 31.8667 675.216 33C675.149 34.1333 674.849 35.0833 674.316 35.85C673.782 36.5833 672.816 36.95 671.416 36.95C670.382 36.95 669.516 36.5667 668.816 35.8C668.149 35.0333 667.632 34.0333 667.266 32.8C666.899 31.5667 666.632 30.2333 666.466 28.8C666.332 27.3667 666.266 25.9833 666.266 24.65C666.266 23.3167 666.332 21.95 666.466 20.55C666.599 19.15 666.832 17.85 667.166 16.65C667.532 15.45 668.049 14.4833 668.716 13.75C669.382 13.0167 670.249 12.65 671.316 12.65C673.216 12.65 674.399 13.5167 674.866 15.25C675.266 14.8167 675.899 14.4167 676.766 14.05C677.666 13.65 678.682 13.45 679.816 13.45C682.382 13.45 684.482 14.1 686.116 15.4C687.749 16.7 688.932 18.5 689.666 20.8C690.432 23.0667 690.799 25.7 690.766 28.7C690.766 30.2333 690.616 31.6333 690.316 32.9C690.049 34.1333 689.566 35.1333 688.866 35.9C688.199 36.6333 687.249 37 686.016 37ZM717.258 37C715.624 37 714.124 36.75 712.758 36.25C711.424 35.75 710.358 35 709.558 34C708.758 32.9667 708.358 31.6667 708.358 30.1C708.358 28.7667 708.758 27.6333 709.558 26.7C710.358 25.7667 711.424 25.05 712.758 24.55C714.124 24.05 715.624 23.8 717.258 23.8C718.224 23.8 719.108 23.8833 719.908 24.05C720.708 24.1833 721.258 24.35 721.558 24.55C721.558 23.7833 721.241 23.1167 720.608 22.55C719.974 21.95 718.874 21.65 717.308 21.65C716.574 21.65 715.991 21.7167 715.558 21.85C715.158 21.95 714.791 22.0833 714.458 22.25C714.124 22.4167 713.741 22.5667 713.308 22.7C712.908 22.8 712.358 22.85 711.658 22.85C710.624 22.85 709.791 22.5833 709.158 22.05C708.558 21.4833 708.258 20.6333 708.258 19.5C708.258 18.4667 708.541 17.5833 709.108 16.85C709.708 16.0833 710.474 15.45 711.408 14.95C712.341 14.45 713.341 14.0833 714.408 13.85C715.508 13.6167 716.558 13.5 717.558 13.5C720.524 13.5 722.941 14.05 724.808 15.15C726.674 16.2167 728.058 17.6167 728.958 19.35C729.858 21.0833 730.308 22.9667 730.308 25C730.308 26.1333 730.208 27.1833 730.008 28.15C729.841 29.1167 729.608 29.8667 729.308 30.4C729.774 30.8 730.124 31.2667 730.358 31.8C730.624 32.3333 730.758 32.8833 730.758 33.45C730.758 34.3833 730.441 35.2167 729.808 35.95C729.208 36.65 728.341 37 727.208 37C726.341 37 725.658 36.8667 725.158 36.6C724.658 36.3333 724.158 35.9833 723.658 35.55C722.858 36.0167 721.974 36.3833 721.008 36.65C720.041 36.8833 718.791 37 717.258 37ZM718.258 31.95C719.024 31.95 719.591 31.8 719.958 31.5C720.358 31.1667 720.558 30.8 720.558 30.4C720.558 30 720.358 29.65 719.958 29.35C719.591 29.0167 719.024 28.85 718.258 28.85C717.524 28.85 716.958 29.0167 716.558 29.35C716.158 29.65 715.958 30 715.958 30.4C715.958 30.8 716.158 31.1667 716.558 31.5C716.958 31.8 717.524 31.95 718.258 31.95ZM752.52 37C751.186 37 750.236 36.6333 749.67 35.9C749.136 35.1333 748.82 34.1833 748.72 33.05C748.62 31.8833 748.57 30.7167 748.57 29.55C748.57 27.7833 748.32 26.3667 747.82 25.3C747.32 24.2 746.436 23.65 745.17 23.65C744.036 23.65 743.203 24.2 742.67 25.3C742.136 26.3667 741.87 27.7833 741.87 29.55C741.87 30.7167 741.82 31.8667 741.72 33C741.653 34.1333 741.353 35.0833 740.82 35.85C740.286 36.5833 739.32 36.95 737.92 36.95C736.886 36.95 736.02 36.5667 735.32 35.8C734.653 35.0333 734.136 34.0333 733.77 32.8C733.403 31.5667 733.136 30.2333 732.97 28.8C732.836 27.3667 732.77 25.9833 732.77 24.65C732.77 23.3167 732.836 21.95 732.97 20.55C733.103 19.15 733.336 17.85 733.67 16.65C734.036 15.45 734.553 14.4833 735.22 13.75C735.886 13.0167 736.753 12.65 737.82 12.65C739.72 12.65 740.903 13.5167 741.37 15.25C741.77 14.8167 742.403 14.4167 743.27 14.05C744.17 13.65 745.186 13.45 746.32 13.45C748.886 13.45 750.986 14.1 752.62 15.4C754.253 16.7 755.436 18.5 756.17 20.8C756.936 23.0667 757.303 25.7 757.27 28.7C757.27 30.2333 757.12 31.6333 756.82 32.9C756.553 34.1333 756.07 35.1333 755.37 35.9C754.703 36.6333 753.753 37 752.52 37ZM770.695 37C768.228 37 766.095 36.4167 764.295 35.25C762.528 34.0833 761.162 32.5667 760.195 30.7C759.262 28.8333 758.795 26.8833 758.795 24.85C758.795 22.25 759.312 20.1167 760.345 18.45C761.412 16.7833 762.762 15.55 764.395 14.75C766.028 13.9167 767.728 13.5 769.495 13.5C770.328 13.5 771.178 13.6 772.045 13.8C772.912 13.9667 773.728 14.2667 774.495 14.7C774.362 13.2667 774.062 11.8667 773.595 10.5C773.162 9.1 772.945 7.68333 772.945 6.25C772.945 4.78333 773.395 3.7 774.295 3C775.195 2.3 776.162 1.95 777.195 1.95C778.395 1.95 779.428 2.33333 780.295 3.1C781.162 3.86667 781.895 4.88333 782.495 6.15C783.128 7.41666 783.628 8.85 783.995 10.45C784.362 12.0167 784.628 13.6333 784.795 15.3C784.962 16.9667 785.045 18.5667 785.045 20.1C785.045 20.6 785.012 21.3667 784.945 22.4C784.912 23.4333 784.762 24.5833 784.495 25.85C784.228 27.1167 783.795 28.4 783.195 29.7C782.628 31 781.812 32.2 780.745 33.3C779.712 34.4 778.378 35.3 776.745 36C775.112 36.6667 773.095 37 770.695 37ZM770.995 29.1C771.895 29.1 772.678 28.7667 773.345 28.1C774.012 27.4 774.345 26.5833 774.345 25.65C774.345 24.7167 774.012 23.9 773.345 23.2C772.678 22.5 771.895 22.15 770.995 22.15C770.095 22.15 769.295 22.5 768.595 23.2C767.928 23.9 767.595 24.7167 767.595 25.65C767.595 26.5833 767.928 27.4 768.595 28.1C769.295 28.7667 770.095 29.1 770.995 29.1ZM17.1 109C15.5 109 14.4333 108.45 13.9 107.35C13.3667 106.25 13.1 104.7 13.1 102.7C13.1 101.033 13.05 99.65 12.95 98.55C12.85 97.45 12.3833 96.9 11.55 96.9C10.85 96.9 10.35 97.15 10.05 97.65C9.78333 98.15 9.63333 98.8333 9.6 99.7C9.56667 100.567 9.55 101.567 9.55 102.7C9.55 103.867 9.46667 104.933 9.3 105.9C9.16667 106.833 8.81667 107.583 8.25 108.15C7.71667 108.683 6.85 108.95 5.65 108.95C4.48333 108.95 3.53333 108.533 2.8 107.7C2.1 106.867 1.56667 105.767 1.2 104.4C0.833333 103.033 0.583333 101.55 0.45 99.95C0.316667 98.35 0.25 96.7833 0.25 95.25C0.25 92.45 0.5 90.1333 1 88.3C1.5 86.4333 2.56667 85.2667 4.2 84.8C5.2 84.5 6.15 84.4833 7.05 84.75C7.95 85.0167 8.55 85.5167 8.85 86.25C9.18333 86.0833 9.58333 85.9167 10.05 85.75C10.5167 85.55 11.25 85.45 12.25 85.45C13.25 85.45 14.2333 85.7 15.2 86.2C16.1667 86.7 16.8667 87.4333 17.3 88.4C18.1 87.4667 18.95 86.7333 19.85 86.2C20.75 85.6667 21.9833 85.4167 23.55 85.45C25.65 85.4833 27.45 86.1333 28.95 87.4C30.45 88.6333 31.6 90.3 32.4 92.4C33.2333 94.4667 33.65 96.7667 33.65 99.3C33.65 100.933 33.5 102.5 33.2 104C32.9333 105.467 32.4167 106.667 31.65 107.6C30.9167 108.533 29.8667 109 28.5 109C27.3 109 26.4167 108.717 25.85 108.15C25.3167 107.583 24.9667 106.833 24.8 105.9C24.6667 104.933 24.6 103.867 24.6 102.7C24.6 101.567 24.5833 100.567 24.55 99.7C24.5167 98.8333 24.3667 98.15 24.1 97.65C23.8333 97.15 23.3333 96.9 22.6 96.9C22.0667 96.9 21.7 97.15 21.5 97.65C21.3 98.15 21.1833 98.8333 21.15 99.7C21.15 100.567 21.1333 101.567 21.1 102.7C21.0667 104.7 20.7667 106.25 20.2 107.35C19.6667 108.45 18.6333 109 17.1 109ZM44.1621 109C42.5288 109 41.0288 108.75 39.6621 108.25C38.3288 107.75 37.2621 107 36.4621 106C35.6621 104.967 35.2621 103.667 35.2621 102.1C35.2621 100.767 35.6621 99.6333 36.4621 98.7C37.2621 97.7667 38.3288 97.05 39.6621 96.55C41.0288 96.05 42.5288 95.8 44.1621 95.8C45.1288 95.8 46.0121 95.8833 46.8121 96.05C47.6121 96.1833 48.1621 96.35 48.4621 96.55C48.4621 95.7833 48.1454 95.1167 47.5121 94.55C46.8788 93.95 45.7788 93.65 44.2121 93.65C43.4788 93.65 42.8954 93.7167 42.4621 93.85C42.0621 93.95 41.6954 94.0833 41.3621 94.25C41.0288 94.4167 40.6454 94.5667 40.2121 94.7C39.8121 94.8 39.2621 94.85 38.5621 94.85C37.5288 94.85 36.6954 94.5833 36.0621 94.05C35.4621 93.4833 35.1621 92.6333 35.1621 91.5C35.1621 90.4667 35.4454 89.5833 36.0121 88.85C36.6121 88.0833 37.3788 87.45 38.3121 86.95C39.2454 86.45 40.2454 86.0833 41.3121 85.85C42.4121 85.6167 43.4621 85.5 44.4621 85.5C47.4288 85.5 49.8454 86.05 51.7121 87.15C53.5788 88.2167 54.9621 89.6167 55.8621 91.35C56.7621 93.0833 57.2121 94.9667 57.2121 97C57.2121 98.1333 57.1121 99.1833 56.9121 100.15C56.7454 101.117 56.5121 101.867 56.2121 102.4C56.6788 102.8 57.0288 103.267 57.2621 103.8C57.5288 104.333 57.6621 104.883 57.6621 105.45C57.6621 106.383 57.3454 107.217 56.7121 107.95C56.1121 108.65 55.2454 109 54.1121 109C53.2454 109 52.5621 108.867 52.0621 108.6C51.5621 108.333 51.0621 107.983 50.5621 107.55C49.7621 108.017 48.8788 108.383 47.9121 108.65C46.9454 108.883 45.6954 109 44.1621 109ZM45.1621 103.95C45.9288 103.95 46.4954 103.8 46.8621 103.5C47.2621 103.167 47.4621 102.8 47.4621 102.4C47.4621 102 47.2621 101.65 46.8621 101.35C46.4954 101.017 45.9288 100.85 45.1621 100.85C44.4288 100.85 43.8621 101.017 43.4621 101.35C43.0621 101.65 42.8621 102 42.8621 102.4C42.8621 102.8 43.0621 103.167 43.4621 103.5C43.8621 103.8 44.4288 103.95 45.1621 103.95ZM73.7602 109C72.5935 109 71.4102 108.767 70.2102 108.3C69.0102 107.833 67.9268 107.15 66.9602 106.25C66.0268 105.35 65.3435 104.267 64.9102 103C64.6102 102.167 64.3935 101.133 64.2602 99.9C64.1268 98.6667 64.0268 97.35 63.9602 95.95C63.9268 94.55 63.9102 93.1833 63.9102 91.85C62.6102 91.8167 61.3602 91.7 60.1602 91.5C58.9935 91.3 58.0268 90.9333 57.2602 90.4C56.5268 89.8333 56.1602 89.0167 56.1602 87.95C56.1602 86.65 56.5102 85.6833 57.2102 85.05C57.9102 84.3833 58.8435 83.95 60.0102 83.75C61.2102 83.5167 62.5102 83.3833 63.9102 83.35C63.9435 82.3167 64.0268 81.2667 64.1602 80.2C64.3268 79.1 64.5935 78.0833 64.9602 77.15C65.3268 76.2167 65.8435 75.4667 66.5102 74.9C67.1768 74.3 68.0435 74 69.1102 74C70.5435 74 71.5768 74.45 72.2102 75.35C72.8768 76.25 73.2935 77.4167 73.4602 78.85C73.6268 80.2833 73.6935 81.7833 73.6602 83.35C75.3935 83.3167 76.9268 83.3833 78.2602 83.55C79.5935 83.7167 80.6435 84.0833 81.4102 84.65C82.1768 85.2167 82.5602 86.1167 82.5602 87.35C82.5602 88.6167 82.1268 89.5667 81.2602 90.2C80.3935 90.8333 79.2602 91.2667 77.8602 91.5C76.4602 91.7 74.9768 91.8167 73.4102 91.85C73.4102 92.4833 73.3935 93.15 73.3602 93.85C73.3602 94.5167 73.3602 95.2 73.3602 95.9C73.3602 97.8 73.4935 99.15 73.7602 99.95C73.9602 100.55 74.2268 100.933 74.5602 101.1C74.9268 101.267 75.3768 101.367 75.9102 101.4C76.4435 101.4 77.0935 101.5 77.8602 101.7C78.6268 101.867 79.2268 102.283 79.6602 102.95C80.0935 103.583 80.3102 104.4 80.3102 105.4C80.3102 106.533 79.7102 107.417 78.5102 108.05C77.3435 108.683 75.7602 109 73.7602 109ZM94.3359 108.95C92.2026 108.917 90.2026 108.4 88.3359 107.4C86.4693 106.367 84.9526 104.95 83.7859 103.15C82.6526 101.35 82.0859 99.3167 82.0859 97.05C82.0859 94.6167 82.6526 92.55 83.7859 90.85C84.9526 89.1167 86.4526 87.8 88.2859 86.9C90.1526 85.9667 92.1193 85.5 94.1859 85.5C96.3193 85.5 98.1859 85.9167 99.7859 86.75C101.386 87.55 102.619 88.6 103.486 89.9C104.386 91.1667 104.836 92.4833 104.836 93.85C104.836 94.9833 104.486 95.8833 103.786 96.55C103.119 97.1833 102.053 97.5 100.586 97.5C99.7859 97.5 99.1693 97.35 98.7359 97.05C98.3359 96.7167 97.9859 96.35 97.6859 95.95C97.4193 95.55 97.0859 95.2 96.6859 94.9C96.3193 94.5667 95.7693 94.4 95.0359 94.4C94.1693 94.4 93.4026 94.7 92.7359 95.3C92.1026 95.9 91.7859 96.7 91.7859 97.7C91.7859 98.7333 92.1026 99.55 92.7359 100.15C93.3693 100.717 94.1359 101 95.0359 101C95.7359 101 96.2693 100.9 96.6359 100.7C97.0026 100.467 97.3193 100.2 97.5859 99.9C97.8859 99.6 98.2526 99.35 98.6859 99.15C99.1193 98.9167 99.7526 98.8 100.586 98.8C102.053 98.8 103.119 99.2 103.786 100C104.486 100.767 104.836 101.583 104.836 102.45C104.836 103.55 104.403 104.6 103.536 105.6C102.669 106.6 101.453 107.417 99.8859 108.05C98.3193 108.65 96.4693 108.95 94.3359 108.95ZM112.354 109C110.687 109 109.42 108.35 108.554 107.05C107.687 105.75 107.104 103.733 106.804 101C106.504 98.2333 106.354 94.6667 106.354 90.3C106.354 87.0333 106.437 84.1833 106.604 81.75C106.804 79.3167 107.304 77.4167 108.104 76.05C108.904 74.6833 110.187 74 111.954 74C113.32 74 114.354 74.3833 115.054 75.15C115.754 75.8833 116.22 76.8667 116.454 78.1C116.72 79.3 116.87 80.6333 116.904 82.1C116.937 83.5333 116.954 84.9667 116.954 86.4C117.52 86.1333 118.054 85.9167 118.554 85.75C119.087 85.5833 119.92 85.5 121.054 85.5C123.42 85.5 125.404 86.0833 127.004 87.25C128.604 88.4167 129.82 89.9667 130.654 91.9C131.487 93.8333 131.904 95.9667 131.904 98.3C131.904 99.5 131.854 100.717 131.754 101.95C131.654 103.183 131.437 104.317 131.104 105.35C130.77 106.383 130.287 107.233 129.654 107.9C129.02 108.533 128.17 108.85 127.104 108.85C125.737 108.85 124.72 108.55 124.054 107.95C123.42 107.317 123.02 106.433 122.854 105.3C122.687 104.133 122.604 102.783 122.604 101.25C122.604 99.4833 122.404 98.0167 122.004 96.85C121.637 95.6833 120.904 95.1 119.804 95.1C118.704 95.1 117.937 95.6833 117.504 96.85C117.104 98.0167 116.887 99.4833 116.854 101.25C116.854 102.783 116.754 104.133 116.554 105.3C116.387 106.467 115.987 107.383 115.354 108.05C114.72 108.683 113.72 109 112.354 109ZM140.231 84.75C138.598 84.75 137.214 84.1667 136.081 83C134.948 81.8 134.381 80.35 134.381 78.65C134.381 77.5167 134.631 76.5 135.131 75.6C135.664 74.7 136.364 73.9833 137.231 73.45C138.131 72.8833 139.131 72.6 140.231 72.6C141.298 72.6 142.264 72.8833 143.131 73.45C144.031 73.9833 144.748 74.7 145.281 75.6C145.814 76.5 146.081 77.5167 146.081 78.65C146.081 79.7833 145.814 80.8167 145.281 81.75C144.748 82.65 144.031 83.3833 143.131 83.95C142.264 84.4833 141.298 84.75 140.231 84.75ZM140.231 109C138.898 109 137.898 108.617 137.231 107.85C136.598 107.083 136.164 105.917 135.931 104.35C135.731 102.75 135.614 100.7 135.581 98.2C135.581 95.7 135.681 93.65 135.881 92.05C136.114 90.45 136.564 89.2833 137.231 88.55C137.898 87.7833 138.898 87.4 140.231 87.4C141.564 87.4 142.548 87.7833 143.181 88.55C143.848 89.2833 144.298 90.45 144.531 92.05C144.764 93.65 144.881 95.7 144.881 98.2C144.914 100.7 144.814 102.75 144.581 104.35C144.348 105.917 143.898 107.083 143.231 107.85C142.564 108.617 141.564 109 140.231 109ZM167.852 109C166.518 109 165.568 108.633 165.002 107.9C164.468 107.133 164.152 106.183 164.052 105.05C163.952 103.883 163.902 102.717 163.902 101.55C163.902 99.7833 163.652 98.3667 163.152 97.3C162.652 96.2 161.768 95.65 160.502 95.65C159.368 95.65 158.535 96.2 158.002 97.3C157.468 98.3667 157.202 99.7833 157.202 101.55C157.202 102.717 157.152 103.867 157.052 105C156.985 106.133 156.685 107.083 156.152 107.85C155.618 108.583 154.652 108.95 153.252 108.95C152.218 108.95 151.352 108.567 150.652 107.8C149.985 107.033 149.468 106.033 149.102 104.8C148.735 103.567 148.468 102.233 148.302 100.8C148.168 99.3667 148.102 97.9833 148.102 96.65C148.102 95.3167 148.168 93.95 148.302 92.55C148.435 91.15 148.668 89.85 149.002 88.65C149.368 87.45 149.885 86.4833 150.552 85.75C151.218 85.0167 152.085 84.65 153.152 84.65C155.052 84.65 156.235 85.5167 156.702 87.25C157.102 86.8167 157.735 86.4167 158.602 86.05C159.502 85.65 160.518 85.45 161.652 85.45C164.218 85.45 166.318 86.1 167.952 87.4C169.585 88.7 170.768 90.5 171.502 92.8C172.268 95.0667 172.635 97.7 172.602 100.7C172.602 102.233 172.452 103.633 172.152 104.9C171.885 106.133 171.402 107.133 170.702 107.9C170.035 108.633 169.085 109 167.852 109ZM185.027 117.55C183.16 117.55 181.594 117.183 180.327 116.45C179.06 115.75 178.427 114.783 178.427 113.55C178.427 112.283 178.977 111.3 180.077 110.6C181.177 109.9 182.51 109.683 184.077 109.95C185.91 110.217 187.544 110.1 188.977 109.6C190.444 109.133 191.31 108.417 191.577 107.45C191.044 107.75 190.31 108 189.377 108.2C188.444 108.4 187.394 108.5 186.227 108.5C183.96 108.5 182.044 108.167 180.477 107.5C178.944 106.8 177.71 105.917 176.777 104.85C175.844 103.75 175.16 102.6 174.727 101.4C174.327 100.167 174.127 99.0333 174.127 98C174.127 95.2667 174.71 92.9667 175.877 91.1C177.077 89.2333 178.594 87.8167 180.427 86.85C182.26 85.8833 184.144 85.4 186.077 85.4C186.71 85.4 187.46 85.45 188.327 85.55C189.227 85.6167 189.994 85.7333 190.627 85.9C190.894 85.0667 191.327 84.3833 191.927 83.85C192.56 83.3167 193.56 83.05 194.927 83.05C196.127 83.05 197.127 83.4667 197.927 84.3C198.727 85.1 199.36 86.2 199.827 87.6C200.294 88.9667 200.627 90.5 200.827 92.2C201.027 93.8667 201.11 95.6 201.077 97.4C201.077 99.1667 200.994 100.833 200.827 102.4C200.494 105.5 199.644 108.183 198.277 110.45C196.91 112.717 195.094 114.467 192.827 115.7C190.594 116.933 187.994 117.55 185.027 117.55ZM186.877 101C187.91 101 188.81 100.617 189.577 99.85C190.344 99.0833 190.727 98.2 190.727 97.2C190.727 96.1667 190.344 95.2667 189.577 94.5C188.81 93.7333 187.91 93.35 186.877 93.35C185.844 93.35 184.944 93.7333 184.177 94.5C183.444 95.2667 183.077 96.1667 183.077 97.2C183.077 98.2 183.444 99.0833 184.177 99.85C184.944 100.617 185.844 101 186.877 101ZM224.411 108.9C222.711 108.9 221.444 108.267 220.611 107C219.777 105.7 219.227 103.767 218.961 101.2C218.694 98.6 218.561 95.35 218.561 91.45C218.561 88.8833 218.594 86.5333 218.661 84.4C218.761 82.2667 218.994 80.4333 219.361 78.9C219.727 77.3333 220.311 76.1333 221.111 75.3C221.911 74.4333 223.027 74 224.461 74C225.894 74 227.011 74.4333 227.811 75.3C228.611 76.1333 229.194 77.3333 229.561 78.9C229.927 80.4333 230.144 82.2667 230.211 84.4C230.311 86.5333 230.361 88.8833 230.361 91.45C230.361 97.3167 229.944 101.7 229.111 104.6C228.311 107.467 226.744 108.9 224.411 108.9ZM244.441 109C241.941 109 239.741 108.517 237.841 107.55C235.974 106.55 234.507 105.2 233.441 103.5C232.407 101.767 231.891 99.7833 231.891 97.55C231.891 95.3833 232.407 93.3833 233.441 91.55C234.507 89.7167 235.957 88.25 237.791 87.15C239.657 86.05 241.791 85.5 244.191 85.5C246.424 85.5 248.341 85.95 249.941 86.85C251.541 87.75 252.757 88.9 253.591 90.3C254.457 91.6667 254.891 93.1167 254.891 94.65C254.891 96.1833 254.541 97.45 253.841 98.45C253.141 99.4167 252.224 100.167 251.091 100.7C249.991 101.2 248.807 101.533 247.541 101.7C246.274 101.867 245.057 101.9 243.891 101.8C242.724 101.667 241.741 101.467 240.941 101.2C241.541 102.167 242.291 102.833 243.191 103.2C244.124 103.533 245.091 103.683 246.091 103.65C247.124 103.583 248.057 103.467 248.891 103.3C249.924 103.067 250.774 103.117 251.441 103.45C252.107 103.783 252.457 104.317 252.491 105.05C252.524 105.65 252.307 106.25 251.841 106.85C251.407 107.45 250.607 107.967 249.441 108.4C248.274 108.8 246.607 109 244.441 109ZM241.091 95.1C241.424 95.6333 241.907 96.0167 242.541 96.25C243.174 96.45 243.807 96.5167 244.441 96.45C245.107 96.3833 245.657 96.2 246.091 95.9C246.557 95.6 246.791 95.1833 246.791 94.65C246.791 94.0833 246.557 93.5833 246.091 93.15C245.657 92.6833 244.957 92.45 243.991 92.45C243.057 92.45 242.341 92.75 241.841 93.35C241.341 93.9167 241.091 94.5 241.091 95.1ZM265.402 109C263.769 109 262.269 108.75 260.902 108.25C259.569 107.75 258.502 107 257.702 106C256.902 104.967 256.502 103.667 256.502 102.1C256.502 100.767 256.902 99.6333 257.702 98.7C258.502 97.7667 259.569 97.05 260.902 96.55C262.269 96.05 263.769 95.8 265.402 95.8C266.369 95.8 267.252 95.8833 268.052 96.05C268.852 96.1833 269.402 96.35 269.702 96.55C269.702 95.7833 269.386 95.1167 268.752 94.55C268.119 93.95 267.019 93.65 265.452 93.65C264.719 93.65 264.136 93.7167 263.702 93.85C263.302 93.95 262.936 94.0833 262.602 94.25C262.269 94.4167 261.886 94.5667 261.452 94.7C261.052 94.8 260.502 94.85 259.802 94.85C258.769 94.85 257.936 94.5833 257.302 94.05C256.702 93.4833 256.402 92.6333 256.402 91.5C256.402 90.4667 256.686 89.5833 257.252 88.85C257.852 88.0833 258.619 87.45 259.552 86.95C260.486 86.45 261.486 86.0833 262.552 85.85C263.652 85.6167 264.702 85.5 265.702 85.5C268.669 85.5 271.086 86.05 272.952 87.15C274.819 88.2167 276.202 89.6167 277.102 91.35C278.002 93.0833 278.452 94.9667 278.452 97C278.452 98.1333 278.352 99.1833 278.152 100.15C277.986 101.117 277.752 101.867 277.452 102.4C277.919 102.8 278.269 103.267 278.502 103.8C278.769 104.333 278.902 104.883 278.902 105.45C278.902 106.383 278.586 107.217 277.952 107.95C277.352 108.65 276.486 109 275.352 109C274.486 109 273.802 108.867 273.302 108.6C272.802 108.333 272.302 107.983 271.802 107.55C271.002 108.017 270.119 108.383 269.152 108.65C268.186 108.883 266.936 109 265.402 109ZM266.402 103.95C267.169 103.95 267.736 103.8 268.102 103.5C268.502 103.167 268.702 102.8 268.702 102.4C268.702 102 268.502 101.65 268.102 101.35C267.736 101.017 267.169 100.85 266.402 100.85C265.669 100.85 265.102 101.017 264.702 101.35C264.302 101.65 264.102 102 264.102 102.4C264.102 102.8 264.302 103.167 264.702 103.5C265.102 103.8 265.669 103.95 266.402 103.95ZM286.264 109C285.131 109 284.197 108.633 283.464 107.9C282.764 107.133 282.231 106.117 281.864 104.85C281.497 103.583 281.247 102.133 281.114 100.5C280.981 98.8667 280.914 97.1833 280.914 95.45C280.914 94.2833 280.931 93.1 280.964 91.9C281.031 90.6667 281.197 89.5333 281.464 88.5C281.764 87.4667 282.247 86.6333 282.914 86C283.614 85.3333 284.597 85 285.864 85C286.764 85 287.581 85.2167 288.314 85.65C289.047 86.05 289.514 86.6667 289.714 87.5C290.481 86.8 291.447 86.3 292.614 86C293.814 85.6667 295.047 85.5 296.314 85.5C297.381 85.5 298.464 85.7667 299.564 86.3C300.664 86.8 301.597 87.5 302.364 88.4C303.131 89.3 303.514 90.3167 303.514 91.45C303.514 92.4167 303.147 93.3333 302.414 94.2C301.714 95.0667 300.714 95.5 299.414 95.5C298.847 95.5 298.381 95.4333 298.014 95.3C297.647 95.1333 297.297 94.9833 296.964 94.85C296.631 94.7167 296.231 94.65 295.764 94.65C294.531 94.65 293.397 95.15 292.364 96.15C291.364 97.1167 290.864 98.4333 290.864 100.1C290.864 100.967 290.831 101.917 290.764 102.95C290.731 103.95 290.581 104.917 290.314 105.85C290.081 106.783 289.647 107.55 289.014 108.15C288.381 108.717 287.464 109 286.264 109ZM324.785 109C323.452 109 322.502 108.633 321.935 107.9C321.402 107.133 321.085 106.183 320.985 105.05C320.885 103.883 320.835 102.717 320.835 101.55C320.835 99.7833 320.585 98.3667 320.085 97.3C319.585 96.2 318.702 95.65 317.435 95.65C316.302 95.65 315.468 96.2 314.935 97.3C314.402 98.3667 314.135 99.7833 314.135 101.55C314.135 102.717 314.085 103.867 313.985 105C313.918 106.133 313.618 107.083 313.085 107.85C312.552 108.583 311.585 108.95 310.185 108.95C309.152 108.95 308.285 108.567 307.585 107.8C306.918 107.033 306.402 106.033 306.035 104.8C305.668 103.567 305.402 102.233 305.235 100.8C305.102 99.3667 305.035 97.9833 305.035 96.65C305.035 95.3167 305.102 93.95 305.235 92.55C305.368 91.15 305.602 89.85 305.935 88.65C306.302 87.45 306.818 86.4833 307.485 85.75C308.152 85.0167 309.018 84.65 310.085 84.65C311.985 84.65 313.168 85.5167 313.635 87.25C314.035 86.8167 314.668 86.4167 315.535 86.05C316.435 85.65 317.452 85.45 318.585 85.45C321.152 85.45 323.252 86.1 324.885 87.4C326.518 88.7 327.702 90.5 328.435 92.8C329.202 95.0667 329.568 97.7 329.535 100.7C329.535 102.233 329.385 103.633 329.085 104.9C328.818 106.133 328.335 107.133 327.635 107.9C326.968 108.633 326.018 109 324.785 109ZM337.887 84.75C336.254 84.75 334.87 84.1667 333.737 83C332.604 81.8 332.037 80.35 332.037 78.65C332.037 77.5167 332.287 76.5 332.787 75.6C333.32 74.7 334.02 73.9833 334.887 73.45C335.787 72.8833 336.787 72.6 337.887 72.6C338.954 72.6 339.92 72.8833 340.787 73.45C341.687 73.9833 342.404 74.7 342.937 75.6C343.47 76.5 343.737 77.5167 343.737 78.65C343.737 79.7833 343.47 80.8167 342.937 81.75C342.404 82.65 341.687 83.3833 340.787 83.95C339.92 84.4833 338.954 84.75 337.887 84.75ZM337.887 109C336.554 109 335.554 108.617 334.887 107.85C334.254 107.083 333.82 105.917 333.587 104.35C333.387 102.75 333.27 100.7 333.237 98.2C333.237 95.7 333.337 93.65 333.537 92.05C333.77 90.45 334.22 89.2833 334.887 88.55C335.554 87.7833 336.554 87.4 337.887 87.4C339.22 87.4 340.204 87.7833 340.837 88.55C341.504 89.2833 341.954 90.45 342.187 92.05C342.42 93.65 342.537 95.7 342.537 98.2C342.57 100.7 342.47 102.75 342.237 104.35C342.004 105.917 341.554 107.083 340.887 107.85C340.22 108.617 339.22 109 337.887 109ZM365.508 109C364.174 109 363.224 108.633 362.658 107.9C362.124 107.133 361.808 106.183 361.708 105.05C361.608 103.883 361.558 102.717 361.558 101.55C361.558 99.7833 361.308 98.3667 360.808 97.3C360.308 96.2 359.424 95.65 358.158 95.65C357.024 95.65 356.191 96.2 355.658 97.3C355.124 98.3667 354.858 99.7833 354.858 101.55C354.858 102.717 354.808 103.867 354.708 105C354.641 106.133 354.341 107.083 353.808 107.85C353.274 108.583 352.308 108.95 350.908 108.95C349.874 108.95 349.008 108.567 348.308 107.8C347.641 107.033 347.124 106.033 346.758 104.8C346.391 103.567 346.124 102.233 345.958 100.8C345.824 99.3667 345.758 97.9833 345.758 96.65C345.758 95.3167 345.824 93.95 345.958 92.55C346.091 91.15 346.324 89.85 346.658 88.65C347.024 87.45 347.541 86.4833 348.208 85.75C348.874 85.0167 349.741 84.65 350.808 84.65C352.708 84.65 353.891 85.5167 354.358 87.25C354.758 86.8167 355.391 86.4167 356.258 86.05C357.158 85.65 358.174 85.45 359.308 85.45C361.874 85.45 363.974 86.1 365.608 87.4C367.241 88.7 368.424 90.5 369.158 92.8C369.924 95.0667 370.291 97.7 370.258 100.7C370.258 102.233 370.108 103.633 369.808 104.9C369.541 106.133 369.058 107.133 368.358 107.9C367.691 108.633 366.741 109 365.508 109ZM382.683 117.55C380.817 117.55 379.25 117.183 377.983 116.45C376.717 115.75 376.083 114.783 376.083 113.55C376.083 112.283 376.633 111.3 377.733 110.6C378.833 109.9 380.167 109.683 381.733 109.95C383.567 110.217 385.2 110.1 386.633 109.6C388.1 109.133 388.967 108.417 389.233 107.45C388.7 107.75 387.967 108 387.033 108.2C386.1 108.4 385.05 108.5 383.883 108.5C381.617 108.5 379.7 108.167 378.133 107.5C376.6 106.8 375.367 105.917 374.433 104.85C373.5 103.75 372.817 102.6 372.383 101.4C371.983 100.167 371.783 99.0333 371.783 98C371.783 95.2667 372.367 92.9667 373.533 91.1C374.733 89.2333 376.25 87.8167 378.083 86.85C379.917 85.8833 381.8 85.4 383.733 85.4C384.367 85.4 385.117 85.45 385.983 85.55C386.883 85.6167 387.65 85.7333 388.283 85.9C388.55 85.0667 388.983 84.3833 389.583 83.85C390.217 83.3167 391.217 83.05 392.583 83.05C393.783 83.05 394.783 83.4667 395.583 84.3C396.383 85.1 397.017 86.2 397.483 87.6C397.95 88.9667 398.283 90.5 398.483 92.2C398.683 93.8667 398.767 95.6 398.733 97.4C398.733 99.1667 398.65 100.833 398.483 102.4C398.15 105.5 397.3 108.183 395.933 110.45C394.567 112.717 392.75 114.467 390.483 115.7C388.25 116.933 385.65 117.55 382.683 117.55ZM384.533 101C385.567 101 386.467 100.617 387.233 99.85C388 99.0833 388.383 98.2 388.383 97.2C388.383 96.1667 388 95.2667 387.233 94.5C386.467 93.7333 385.567 93.35 384.533 93.35C383.5 93.35 382.6 93.7333 381.833 94.5C381.1 95.2667 380.733 96.1667 380.733 97.2C380.733 98.2 381.1 99.0833 381.833 99.85C382.6 100.617 383.5 101 384.533 101ZM428.467 108.95C426.333 108.917 424.333 108.4 422.467 107.4C420.6 106.367 419.083 104.95 417.917 103.15C416.783 101.35 416.217 99.3167 416.217 97.05C416.217 94.6167 416.783 92.55 417.917 90.85C419.083 89.1167 420.583 87.8 422.417 86.9C424.283 85.9667 426.25 85.5 428.317 85.5C430.45 85.5 432.317 85.9167 433.917 86.75C435.517 87.55 436.75 88.6 437.617 89.9C438.517 91.1667 438.967 92.4833 438.967 93.85C438.967 94.9833 438.617 95.8833 437.917 96.55C437.25 97.1833 436.183 97.5 434.717 97.5C433.917 97.5 433.3 97.35 432.867 97.05C432.467 96.7167 432.117 96.35 431.817 95.95C431.55 95.55 431.217 95.2 430.817 94.9C430.45 94.5667 429.9 94.4 429.167 94.4C428.3 94.4 427.533 94.7 426.867 95.3C426.233 95.9 425.917 96.7 425.917 97.7C425.917 98.7333 426.233 99.55 426.867 100.15C427.5 100.717 428.267 101 429.167 101C429.867 101 430.4 100.9 430.767 100.7C431.133 100.467 431.45 100.2 431.717 99.9C432.017 99.6 432.383 99.35 432.817 99.15C433.25 98.9167 433.883 98.8 434.717 98.8C436.183 98.8 437.25 99.2 437.917 100C438.617 100.767 438.967 101.583 438.967 102.45C438.967 103.55 438.533 104.6 437.667 105.6C436.8 106.6 435.583 107.417 434.017 108.05C432.45 108.65 430.6 108.95 428.467 108.95ZM453.473 109.05C451.006 109.083 448.839 108.583 446.973 107.55C445.139 106.483 443.689 105.05 442.623 103.25C441.589 101.417 441.039 99.4 440.973 97.2C440.939 94.9333 441.456 92.9333 442.523 91.2C443.589 89.4333 445.073 88.0333 446.973 87C448.873 85.9667 451.039 85.45 453.473 85.45C455.873 85.4167 457.989 85.9167 459.823 86.95C461.689 87.9833 463.173 89.3833 464.273 91.15C465.373 92.9167 465.956 94.9333 466.023 97.2C466.056 99.3667 465.539 101.35 464.473 103.15C463.406 104.917 461.923 106.333 460.023 107.4C458.123 108.433 455.939 108.983 453.473 109.05ZM453.623 101.75C454.523 101.75 455.306 101.4 455.973 100.7C456.639 100 456.973 99.1833 456.973 98.25C456.973 97.3167 456.639 96.5167 455.973 95.85C455.306 95.15 454.523 94.8 453.623 94.8C452.723 94.8 451.939 95.15 451.273 95.85C450.606 96.5167 450.273 97.3167 450.273 98.25C450.273 99.1833 450.606 100 451.273 100.7C451.939 101.4 452.723 101.75 453.623 101.75ZM484.385 109C482.785 109 481.718 108.45 481.185 107.35C480.652 106.25 480.385 104.7 480.385 102.7C480.385 101.033 480.335 99.65 480.235 98.55C480.135 97.45 479.668 96.9 478.835 96.9C478.135 96.9 477.635 97.15 477.335 97.65C477.068 98.15 476.918 98.8333 476.885 99.7C476.852 100.567 476.835 101.567 476.835 102.7C476.835 103.867 476.752 104.933 476.585 105.9C476.452 106.833 476.102 107.583 475.535 108.15C475.002 108.683 474.135 108.95 472.935 108.95C471.768 108.95 470.818 108.533 470.085 107.7C469.385 106.867 468.852 105.767 468.485 104.4C468.118 103.033 467.868 101.55 467.735 99.95C467.602 98.35 467.535 96.7833 467.535 95.25C467.535 92.45 467.785 90.1333 468.285 88.3C468.785 86.4333 469.852 85.2667 471.485 84.8C472.485 84.5 473.435 84.4833 474.335 84.75C475.235 85.0167 475.835 85.5167 476.135 86.25C476.468 86.0833 476.868 85.9167 477.335 85.75C477.802 85.55 478.535 85.45 479.535 85.45C480.535 85.45 481.518 85.7 482.485 86.2C483.452 86.7 484.152 87.4333 484.585 88.4C485.385 87.4667 486.235 86.7333 487.135 86.2C488.035 85.6667 489.268 85.4167 490.835 85.45C492.935 85.4833 494.735 86.1333 496.235 87.4C497.735 88.6333 498.885 90.3 499.685 92.4C500.518 94.4667 500.935 96.7667 500.935 99.3C500.935 100.933 500.785 102.5 500.485 104C500.218 105.467 499.702 106.667 498.935 107.6C498.202 108.533 497.152 109 495.785 109C494.585 109 493.702 108.717 493.135 108.15C492.602 107.583 492.252 106.833 492.085 105.9C491.952 104.933 491.885 103.867 491.885 102.7C491.885 101.567 491.868 100.567 491.835 99.7C491.802 98.8333 491.652 98.15 491.385 97.65C491.118 97.15 490.618 96.9 489.885 96.9C489.352 96.9 488.985 97.15 488.785 97.65C488.585 98.15 488.468 98.8333 488.435 99.7C488.435 100.567 488.418 101.567 488.385 102.7C488.352 104.7 488.052 106.25 487.485 107.35C486.952 108.45 485.918 109 484.385 109ZM520.274 109C518.674 109 517.607 108.45 517.074 107.35C516.54 106.25 516.274 104.7 516.274 102.7C516.274 101.033 516.224 99.65 516.124 98.55C516.024 97.45 515.557 96.9 514.724 96.9C514.024 96.9 513.524 97.15 513.224 97.65C512.957 98.15 512.807 98.8333 512.774 99.7C512.74 100.567 512.724 101.567 512.724 102.7C512.724 103.867 512.64 104.933 512.474 105.9C512.34 106.833 511.99 107.583 511.424 108.15C510.89 108.683 510.024 108.95 508.824 108.95C507.657 108.95 506.707 108.533 505.974 107.7C505.274 106.867 504.74 105.767 504.374 104.4C504.007 103.033 503.757 101.55 503.624 99.95C503.49 98.35 503.424 96.7833 503.424 95.25C503.424 92.45 503.674 90.1333 504.174 88.3C504.674 86.4333 505.74 85.2667 507.374 84.8C508.374 84.5 509.324 84.4833 510.224 84.75C511.124 85.0167 511.724 85.5167 512.024 86.25C512.357 86.0833 512.757 85.9167 513.224 85.75C513.69 85.55 514.424 85.45 515.424 85.45C516.424 85.45 517.407 85.7 518.374 86.2C519.34 86.7 520.04 87.4333 520.474 88.4C521.274 87.4667 522.124 86.7333 523.024 86.2C523.924 85.6667 525.157 85.4167 526.724 85.45C528.824 85.4833 530.624 86.1333 532.124 87.4C533.624 88.6333 534.774 90.3 535.574 92.4C536.407 94.4667 536.824 96.7667 536.824 99.3C536.824 100.933 536.674 102.5 536.374 104C536.107 105.467 535.59 106.667 534.824 107.6C534.09 108.533 533.04 109 531.674 109C530.474 109 529.59 108.717 529.024 108.15C528.49 107.583 528.14 106.833 527.974 105.9C527.84 104.933 527.774 103.867 527.774 102.7C527.774 101.567 527.757 100.567 527.724 99.7C527.69 98.8333 527.54 98.15 527.274 97.65C527.007 97.15 526.507 96.9 525.774 96.9C525.24 96.9 524.874 97.15 524.674 97.65C524.474 98.15 524.357 98.8333 524.324 99.7C524.324 100.567 524.307 101.567 524.274 102.7C524.24 104.7 523.94 106.25 523.374 107.35C522.84 108.45 521.807 109 520.274 109ZM550.436 109C547.969 109 545.819 108.4 543.986 107.2C542.186 105.967 540.786 104.267 539.786 102.1C538.819 99.9 538.336 97.3667 538.336 94.5C538.336 91.7 538.769 89.5 539.636 87.9C540.536 86.3 541.803 85.5 543.436 85.5C544.603 85.5 545.486 85.7167 546.086 86.15C546.719 86.5833 547.136 87.1333 547.336 87.8C547.569 88.4333 547.686 89.1167 547.686 89.85C547.686 90.7833 547.619 91.7333 547.486 92.7C547.386 93.6667 547.336 94.7 547.336 95.8C547.336 97.3667 547.653 98.5167 548.286 99.25C548.953 99.95 549.669 100.3 550.436 100.3C551.269 100.3 551.986 99.95 552.586 99.25C553.219 98.5167 553.536 97.3667 553.536 95.8C553.536 94.7 553.486 93.7167 553.386 92.85C553.286 91.9833 553.236 91 553.236 89.9C553.236 88.7333 553.519 87.7167 554.086 86.85C554.653 85.95 555.786 85.5 557.486 85.5C559.119 85.5 560.369 86.3 561.236 87.9C562.103 89.5 562.536 91.7 562.536 94.5C562.536 97.3667 562.086 99.9 561.186 102.1C560.286 104.267 558.936 105.967 557.136 107.2C555.369 108.4 553.136 109 550.436 109ZM584.453 109C583.12 109 582.17 108.633 581.603 107.9C581.07 107.133 580.753 106.183 580.653 105.05C580.553 103.883 580.503 102.717 580.503 101.55C580.503 99.7833 580.253 98.3667 579.753 97.3C579.253 96.2 578.37 95.65 577.103 95.65C575.97 95.65 575.136 96.2 574.603 97.3C574.07 98.3667 573.803 99.7833 573.803 101.55C573.803 102.717 573.753 103.867 573.653 105C573.586 106.133 573.286 107.083 572.753 107.85C572.22 108.583 571.253 108.95 569.853 108.95C568.82 108.95 567.953 108.567 567.253 107.8C566.586 107.033 566.07 106.033 565.703 104.8C565.336 103.567 565.07 102.233 564.903 100.8C564.77 99.3667 564.703 97.9833 564.703 96.65C564.703 95.3167 564.77 93.95 564.903 92.55C565.036 91.15 565.27 89.85 565.603 88.65C565.97 87.45 566.486 86.4833 567.153 85.75C567.82 85.0167 568.686 84.65 569.753 84.65C571.653 84.65 572.836 85.5167 573.303 87.25C573.703 86.8167 574.336 86.4167 575.203 86.05C576.103 85.65 577.12 85.45 578.253 85.45C580.82 85.45 582.92 86.1 584.553 87.4C586.186 88.7 587.37 90.5 588.103 92.8C588.87 95.0667 589.236 97.7 589.203 100.7C589.203 102.233 589.053 103.633 588.753 104.9C588.486 106.133 588.003 107.133 587.303 107.9C586.636 108.633 585.686 109 584.453 109ZM597.555 84.75C595.922 84.75 594.538 84.1667 593.405 83C592.272 81.8 591.705 80.35 591.705 78.65C591.705 77.5167 591.955 76.5 592.455 75.6C592.988 74.7 593.688 73.9833 594.555 73.45C595.455 72.8833 596.455 72.6 597.555 72.6C598.622 72.6 599.588 72.8833 600.455 73.45C601.355 73.9833 602.072 74.7 602.605 75.6C603.138 76.5 603.405 77.5167 603.405 78.65C603.405 79.7833 603.138 80.8167 602.605 81.75C602.072 82.65 601.355 83.3833 600.455 83.95C599.588 84.4833 598.622 84.75 597.555 84.75ZM597.555 109C596.222 109 595.222 108.617 594.555 107.85C593.922 107.083 593.488 105.917 593.255 104.35C593.055 102.75 592.938 100.7 592.905 98.2C592.905 95.7 593.005 93.65 593.205 92.05C593.438 90.45 593.888 89.2833 594.555 88.55C595.222 87.7833 596.222 87.4 597.555 87.4C598.888 87.4 599.872 87.7833 600.505 88.55C601.172 89.2833 601.622 90.45 601.855 92.05C602.088 93.65 602.205 95.7 602.205 98.2C602.238 100.7 602.138 102.75 601.905 104.35C601.672 105.917 601.222 107.083 600.555 107.85C599.888 108.617 598.888 109 597.555 109ZM621.514 109C620.347 109 619.164 108.767 617.964 108.3C616.764 107.833 615.681 107.15 614.714 106.25C613.781 105.35 613.097 104.267 612.664 103C612.364 102.167 612.147 101.133 612.014 99.9C611.881 98.6667 611.781 97.35 611.714 95.95C611.681 94.55 611.664 93.1833 611.664 91.85C610.364 91.8167 609.114 91.7 607.914 91.5C606.747 91.3 605.781 90.9333 605.014 90.4C604.281 89.8333 603.914 89.0167 603.914 87.95C603.914 86.65 604.264 85.6833 604.964 85.05C605.664 84.3833 606.597 83.95 607.764 83.75C608.964 83.5167 610.264 83.3833 611.664 83.35C611.697 82.3167 611.781 81.2667 611.914 80.2C612.081 79.1 612.347 78.0833 612.714 77.15C613.081 76.2167 613.597 75.4667 614.264 74.9C614.931 74.3 615.797 74 616.864 74C618.297 74 619.331 74.45 619.964 75.35C620.631 76.25 621.047 77.4167 621.214 78.85C621.381 80.2833 621.447 81.7833 621.414 83.35C623.147 83.3167 624.681 83.3833 626.014 83.55C627.347 83.7167 628.397 84.0833 629.164 84.65C629.931 85.2167 630.314 86.1167 630.314 87.35C630.314 88.6167 629.881 89.5667 629.014 90.2C628.147 90.8333 627.014 91.2667 625.614 91.5C624.214 91.7 622.731 91.8167 621.164 91.85C621.164 92.4833 621.147 93.15 621.114 93.85C621.114 94.5167 621.114 95.2 621.114 95.9C621.114 97.8 621.247 99.15 621.514 99.95C621.714 100.55 621.981 100.933 622.314 101.1C622.681 101.267 623.131 101.367 623.664 101.4C624.197 101.4 624.847 101.5 625.614 101.7C626.381 101.867 626.981 102.283 627.414 102.95C627.847 103.583 628.064 104.4 628.064 105.4C628.064 106.533 627.464 107.417 626.264 108.05C625.097 108.683 623.514 109 621.514 109ZM639.655 116.4C638.555 116.4 637.521 116.25 636.555 115.95C635.621 115.683 634.855 115.233 634.255 114.6C633.655 114 633.355 113.217 633.355 112.25C633.355 111.083 633.888 110.2 634.955 109.6C636.021 109 637.221 108.733 638.555 108.8C640.021 108.833 641.155 108.767 641.955 108.6C642.788 108.4 643.421 108.033 643.855 107.5C640.788 107.5 638.338 107.05 636.505 106.15C634.671 105.25 633.338 103.85 632.505 101.95C631.705 100.05 631.305 97.5833 631.305 94.55C631.305 92.9167 631.471 91.4333 631.805 90.1C632.138 88.7333 632.671 87.65 633.405 86.85C634.171 86.0167 635.171 85.6 636.405 85.6C638.071 85.6 639.255 86.0833 639.955 87.05C640.655 87.9833 641.005 89.0833 641.005 90.35C641.005 91.4833 640.988 92.6 640.955 93.7C640.921 94.7667 640.955 95.7167 641.055 96.55C641.155 97.3833 641.421 98.05 641.855 98.55C642.288 99.05 642.971 99.3 643.905 99.3C644.838 99.3 645.521 99.05 645.955 98.55C646.388 98.05 646.655 97.3833 646.755 96.55C646.855 95.7167 646.888 94.7833 646.855 93.75C646.821 92.6833 646.805 91.5833 646.805 90.45C646.805 89.05 647.155 87.9 647.855 87C648.588 86.0667 649.771 85.6 651.405 85.6C652.671 85.6 653.671 86.0167 654.405 86.85C655.171 87.65 655.721 88.7333 656.055 90.1C656.388 91.4333 656.555 92.9167 656.555 94.55C656.555 97.2833 656.255 99.9667 655.655 102.6C655.088 105.2 654.138 107.533 652.805 109.6C651.505 111.667 649.771 113.317 647.605 114.55C645.471 115.783 642.821 116.4 639.655 116.4ZM688.379 109C685.979 109 683.963 108.667 682.329 108C680.696 107.3 679.346 106.4 678.279 105.3C677.246 104.2 676.429 103 675.829 101.7C675.263 100.4 674.846 99.1167 674.579 97.85C674.313 96.5833 674.146 95.4333 674.079 94.4C674.046 93.3667 674.029 92.6 674.029 92.1C674.029 90.5667 674.113 88.9667 674.279 87.3C674.446 85.6333 674.713 84.0167 675.079 82.45C675.446 80.85 675.929 79.4167 676.529 78.15C677.163 76.8833 677.913 75.8667 678.779 75.1C679.646 74.3333 680.679 73.95 681.879 73.95C682.946 73.95 683.913 74.3 684.779 75C685.679 75.7 686.129 76.7833 686.129 78.25C686.129 79.6833 685.896 81.1 685.429 82.5C684.996 83.8667 684.713 85.2667 684.579 86.7C685.346 86.2667 686.163 85.9667 687.029 85.8C687.896 85.6 688.746 85.5 689.579 85.5C691.346 85.5 693.046 85.9167 694.679 86.75C696.313 87.55 697.646 88.7833 698.679 90.45C699.746 92.1167 700.279 94.25 700.279 96.85C700.279 98.8833 699.796 100.833 698.829 102.7C697.896 104.567 696.529 106.083 694.729 107.25C692.963 108.417 690.846 109 688.379 109ZM688.079 101.1C688.979 101.1 689.763 100.767 690.429 100.1C691.129 99.4 691.479 98.5833 691.479 97.65C691.479 96.7167 691.129 95.9 690.429 95.2C689.763 94.5 688.979 94.15 688.079 94.15C687.179 94.15 686.396 94.5 685.729 95.2C685.063 95.9 684.729 96.7167 684.729 97.65C684.729 98.5833 685.063 99.4 685.729 100.1C686.396 100.767 687.179 101.1 688.079 101.1ZM714.313 109.05C711.846 109.083 709.679 108.583 707.813 107.55C705.979 106.483 704.529 105.05 703.463 103.25C702.429 101.417 701.879 99.4 701.813 97.2C701.779 94.9333 702.296 92.9333 703.363 91.2C704.429 89.4333 705.913 88.0333 707.813 87C709.713 85.9667 711.879 85.45 714.313 85.45C716.713 85.4167 718.829 85.9167 720.663 86.95C722.529 87.9833 724.013 89.3833 725.113 91.15C726.213 92.9167 726.796 94.9333 726.863 97.2C726.896 99.3667 726.379 101.35 725.313 103.15C724.246 104.917 722.763 106.333 720.863 107.4C718.963 108.433 716.779 108.983 714.313 109.05ZM714.463 101.75C715.363 101.75 716.146 101.4 716.813 100.7C717.479 100 717.813 99.1833 717.813 98.25C717.813 97.3167 717.479 96.5167 716.813 95.85C716.146 95.15 715.363 94.8 714.463 94.8C713.563 94.8 712.779 95.15 712.113 95.85C711.446 96.5167 711.113 97.3167 711.113 98.25C711.113 99.1833 711.446 100 712.113 100.7C712.779 101.4 713.563 101.75 714.463 101.75ZM737.375 109C735.742 109 734.242 108.75 732.875 108.25C731.542 107.75 730.475 107 729.675 106C728.875 104.967 728.475 103.667 728.475 102.1C728.475 100.767 728.875 99.6333 729.675 98.7C730.475 97.7667 731.542 97.05 732.875 96.55C734.242 96.05 735.742 95.8 737.375 95.8C738.342 95.8 739.225 95.8833 740.025 96.05C740.825 96.1833 741.375 96.35 741.675 96.55C741.675 95.7833 741.358 95.1167 740.725 94.55C740.092 93.95 738.992 93.65 737.425 93.65C736.692 93.65 736.108 93.7167 735.675 93.85C735.275 93.95 734.908 94.0833 734.575 94.25C734.242 94.4167 733.858 94.5667 733.425 94.7C733.025 94.8 732.475 94.85 731.775 94.85C730.742 94.85 729.908 94.5833 729.275 94.05C728.675 93.4833 728.375 92.6333 728.375 91.5C728.375 90.4667 728.658 89.5833 729.225 88.85C729.825 88.0833 730.592 87.45 731.525 86.95C732.458 86.45 733.458 86.0833 734.525 85.85C735.625 85.6167 736.675 85.5 737.675 85.5C740.642 85.5 743.058 86.05 744.925 87.15C746.792 88.2167 748.175 89.6167 749.075 91.35C749.975 93.0833 750.425 94.9667 750.425 97C750.425 98.1333 750.325 99.1833 750.125 100.15C749.958 101.117 749.725 101.867 749.425 102.4C749.892 102.8 750.242 103.267 750.475 103.8C750.742 104.333 750.875 104.883 750.875 105.45C750.875 106.383 750.558 107.217 749.925 107.95C749.325 108.65 748.458 109 747.325 109C746.458 109 745.775 108.867 745.275 108.6C744.775 108.333 744.275 107.983 743.775 107.55C742.975 108.017 742.092 108.383 741.125 108.65C740.158 108.883 738.908 109 737.375 109ZM738.375 103.95C739.142 103.95 739.708 103.8 740.075 103.5C740.475 103.167 740.675 102.8 740.675 102.4C740.675 102 740.475 101.65 740.075 101.35C739.708 101.017 739.142 100.85 738.375 100.85C737.642 100.85 737.075 101.017 736.675 101.35C736.275 101.65 736.075 102 736.075 102.4C736.075 102.8 736.275 103.167 736.675 103.5C737.075 103.8 737.642 103.95 738.375 103.95ZM758.237 109C757.103 109 756.17 108.633 755.437 107.9C754.737 107.133 754.203 106.117 753.837 104.85C753.47 103.583 753.22 102.133 753.087 100.5C752.953 98.8667 752.887 97.1833 752.887 95.45C752.887 94.2833 752.903 93.1 752.937 91.9C753.003 90.6667 753.17 89.5333 753.437 88.5C753.737 87.4667 754.22 86.6333 754.887 86C755.587 85.3333 756.57 85 757.837 85C758.737 85 759.553 85.2167 760.287 85.65C761.02 86.05 761.487 86.6667 761.687 87.5C762.453 86.8 763.42 86.3 764.587 86C765.787 85.6667 767.02 85.5 768.287 85.5C769.353 85.5 770.437 85.7667 771.537 86.3C772.637 86.8 773.57 87.5 774.337 88.4C775.103 89.3 775.487 90.3167 775.487 91.45C775.487 92.4167 775.12 93.3333 774.387 94.2C773.687 95.0667 772.687 95.5 771.387 95.5C770.82 95.5 770.353 95.4333 769.987 95.3C769.62 95.1333 769.27 94.9833 768.937 94.85C768.603 94.7167 768.203 94.65 767.737 94.65C766.503 94.65 765.37 95.15 764.337 96.15C763.337 97.1167 762.837 98.4333 762.837 100.1C762.837 100.967 762.803 101.917 762.737 102.95C762.703 103.95 762.553 104.917 762.287 105.85C762.053 106.783 761.62 107.55 760.987 108.15C760.353 108.717 759.437 109 758.237 109ZM787.394 109C784.927 109 782.794 108.417 780.994 107.25C779.227 106.083 777.861 104.567 776.894 102.7C775.961 100.833 775.494 98.8833 775.494 96.85C775.494 94.25 776.011 92.1167 777.044 90.45C778.111 88.7833 779.461 87.55 781.094 86.75C782.727 85.9167 784.427 85.5 786.194 85.5C787.027 85.5 787.877 85.6 788.744 85.8C789.611 85.9667 790.427 86.2667 791.194 86.7C791.061 85.2667 790.761 83.8667 790.294 82.5C789.861 81.1 789.644 79.6833 789.644 78.25C789.644 76.7833 790.094 75.7 790.994 75C791.894 74.3 792.861 73.95 793.894 73.95C795.094 73.95 796.127 74.3333 796.994 75.1C797.861 75.8667 798.594 76.8833 799.194 78.15C799.827 79.4167 800.327 80.85 800.694 82.45C801.061 84.0167 801.327 85.6333 801.494 87.3C801.661 88.9667 801.744 90.5667 801.744 92.1C801.744 92.6 801.711 93.3667 801.644 94.4C801.611 95.4333 801.461 96.5833 801.194 97.85C800.927 99.1167 800.494 100.4 799.894 101.7C799.327 103 798.511 104.2 797.444 105.3C796.411 106.4 795.077 107.3 793.444 108C791.811 108.667 789.794 109 787.394 109ZM787.694 101.1C788.594 101.1 789.377 100.767 790.044 100.1C790.711 99.4 791.044 98.5833 791.044 97.65C791.044 96.7167 790.711 95.9 790.044 95.2C789.377 94.5 788.594 94.15 787.694 94.15C786.794 94.15 785.994 94.5 785.294 95.2C784.627 95.9 784.294 96.7167 784.294 97.65C784.294 98.5833 784.627 99.4 785.294 100.1C785.994 100.767 786.794 101.1 787.694 101.1Z" fill="white"/>
</svg>
